<?xml version="1.0" encoding="UTF-8" standalone="no"?>
<!-- Created with Inkscape (http://www.inkscape.org/) -->

<svg
   width="12.200962mm"
   height="9.5063858mm"
   viewBox="0 0 12.200962 9.5063858"
   version="1.1"
   id="svg5219"
   xmlns="http://www.w3.org/2000/svg"
   xmlns:svg="http://www.w3.org/2000/svg">
  <defs
     id="defs5216">
    <clipPath
       clipPathUnits="userSpaceOnUse"
       id="clipPath5550">
      <path
         style="fill:#c0c0c0;stroke:#000000;stroke-width:11.4686;stroke-miterlimit:4;stroke-dasharray:none;stroke-opacity:1"
         id="path5552"
         d="m 769.32497,-7.3994353 c -41.16586,0 -80.46337,9.6732084 -72.23023,52.0060713 2.74496,7.937499 19.20477,22.034905 10.97181,24.680737 -62.5468,-38.490996 -53.23894,0.168456 -89.6023,-10.577304 -47.49868,17.133314 -22.84906,28.20223 -39.31515,36.139574 -16.94162,9.024737 -7.13222,-9.30137 -30.17222,-11.458991 -11.51982,-1.080279 -27.96007,8.984086 -51.20114,6.170262 -11.79077,-1.426463 -36.57718,-3.770158 -42.05819,7.933171 -11.66307,24.902515 -6.92433,0.826823 -15.54302,2.642895 -5.17582,1.0911 -6.43501,16.93472 -13.71467,6.17026 -18.34668,18.43753 -11.11663,32.7666 -21.94345,40.54708 -32.1473,-0.0155 -20.35617,23.81111 -45.7154,26.44396 -5.48888,2.64568 -2.742,25.56397 -8.22895,22.91783 -14.17866,-27.7661 -18.27819,-5.72842 -27.42917,-16.74772 -20.12628,-19.83432 -44.78918,3.52643 -66.74433,0.87937 -30.1841,-25.12321 -42.96084,-6.16888 -65.83016,-21.15508 -10.07423,-8.68148 -26.71904,2.86096 -50.28662,-6.17026 -1.30845,39.66632 -79.476173,61.71884 -78.630655,92.55331 -5.488351,31.74984 50.279625,20.26736 64.001465,30.85084 19.21089,15.87484 -22.85325,33.48277 -31.086212,57.29496 -10.977924,34.39552 32.911932,-2.6514 38.400632,10.57746 5.48923,13.2287 -32.01121,44.06718 -12.80015,54.65066 27.4442,15.87469 127.70315,82.23642 48.45827,77.56819 -12.9289,-7.83411 -17.37189,5.28873 -17.37189,5.28873 0,0 21.02666,7.30664 -0.91364,13.2219 -7.06566,1.90401 -13.28126,5.85437 -20.11475,4.40735 -5.51613,-1.16837 -3.49562,6.65616 -13.71468,5.28873 10.50992,9.34944 7.31442,17.62925 7.31442,17.62925 3.46191,1.50683 6.65513,3.13683 10.05747,4.4072 6.43484,2.40335 12.70651,3.80849 17.37171,1.76307 12.6141,-4.14756 18.5598,-9.01639 28.34369,0.87936 1.29274,4.36362 9.07813,5.80492 15.54302,7.05164 19.8342,-24.78691 29.10571,-1.23791 31.08656,-20.27354 -22.81289,-14.74511 1.70851,-20.83686 9.14312,-10.57761 16.46662,5.54837 27.61243,9.26042 44.80123,8.8147 0,0 -2.01334,-12.19942 6.39991,-12.34052 12.30524,-0.19782 9.91526,7.25193 22.85761,10.57761 15.41305,-9.1037 29.94092,-13.25466 42.05837,-30.85115 3.21541,-13.41199 -5.81415,-10.72227 2.74199,-19.39216 6.35134,-6.93403 10.37279,-31.05253 21.94345,-25.56196 8.40398,3.98807 0.91365,11.44987 0.91365,16.74741 0,5.298 10.79554,6.73095 19.20022,12.34037 10.46118,7.1524 -0.44546,15.08217 2.742,17.62925 33.68705,11.47754 39.31148,26.62091 50.28696,21.15507 13.25348,-4.36299 8.63965,-6.85675 9.14312,-14.98481 0.87172,-14.1093 44.61361,3.22399 63.08694,22.91798 1.69453,-0.31063 13.19968,-1.14827 19.20041,-3.52582 0.62365,-5.13511 9.2495,-14.81728 22.85761,-7.05179 7.11161,0.31064 21.19855,-13.61398 15.54337,-13.2219 -20.52196,1.41874 -29.96817,-22.13412 -25.60066,-43.19121 4.99118,-5.21208 11.40785,-6.99353 10.97181,-11.45899 3.11916,-3.8581 8.10946,9.03802 14.62885,-0.87937 -7.29399,-12.51686 -22.94549,-29.89019 -22.85779,-8.81471 -8.56279,-7.16337 -10.80638,-5.08967 -13.7145,-18.51063 2.58686,-3.11627 8.90221,-10.40807 23.77214,-18.51063 14.86957,-8.10101 22.36777,-6.73868 25.60048,-7.05179 3.2355,-0.31218 -2.53114,-4.50518 -0.91365,-7.93302 1.61766,-3.42722 4.94086,-3.9434 9.14312,-1.76291 4.20225,2.18034 8.22876,-9.69608 8.22876,-9.69608 0,0 4.83937,2.60055 5.48573,-1.76291 0.42102,0.16846 17.08522,4.12515 21.02945,7.05164 0.9678,-2.80378 7.24944,-6.68645 13.7145,-7.93317 6.46489,-1.24719 -2.84436,-5.07499 -6.40025,-8.81455 -3.56165,-3.74002 0.26379,-10.21227 0.91365,-11.45899 1.91674,-12.00207 5.08044,-21.68038 1.82887,-34.37697 0,-4.98644 3.76866,-13.63114 1.82904,-16.74772 -14.09411,-7.34343 -25.99564,-7.77631 -29.25787,-24.6809 0.64637,-5.29862 -4.95047,-5.23386 -3.65739,-6.17026 5.23033,-9.67012 9.22767,-18.37556 13.71468,-28.2064 4.52526,-2.49361 14.2964,0 20.11475,0 5.81643,0 2.90009,2.5358 5.48608,4.4072 12.00303,-12.05663 2.6073,-14.72023 9.14312,-21.15508 6.03374,-5.94137 2.39365,11.04497 64.00146,-33.49544 3.55554,-2.18034 -8.41622,-12.5184 -6.40025,-16.74772 2.01631,-4.22993 15.21058,-2.79528 21.0291,-5.28873 5.81869,-2.49345 6.7692,1.80804 10.97163,6.17011 2.15677,1.87017 11.40453,4.43502 12.80015,-2.6429 0,0 2.73326,2.01962 8.22895,2.6429 5.49621,0.62282 9.14312,0 9.14312,0 1.01497,-5.52302 -0.2044,-10.8201 -6.40026,-12.34037 -3.51868,-8.57284 -9.51329,-15.93233 -11.88598,-26.4438 -1.32243,-5.85128 28.38353,-26.519993 33.82943,-24.680892 9.95684,3.364162 29.95647,13.902832 50.28696,23.799362 1.6002,-0.56101 3.72604,-0.92264 5.48573,-0.87937 -0.0524,-0.28128 0.0524,-0.60119 0,-0.87937 C 795.80765,75.433371 780.3015,-7.3989716 769.32357,-7.3989716 Z" />
    </clipPath>
  </defs>
  <g
     id="layer1"
     transform="translate(-42.980027,-84.598501)">
    <g
       id="slovenia-flag"
       transform="matrix(0.01514556,0,0,0.01712,42.23828,84.777859)"
       clip-path="url(#clipPath5550)">
      <rect
         width="900"
         height="600"
         fill="#ffffff"
         id="rect5132"
         x="0"
         y="0" />
      <rect
         y="400"
         width="900"
         height="200"
         fill="#ed1c24"
         id="rect5134"
         x="0" />
      <rect
         y="200"
         width="900"
         height="200"
         fill="#005da4"
         id="rect5136"
         x="0" />
      <path
         d="m 170.56,115.34 c -1.386,0.8149 -2.7617,1.6609 -4.127,2.5372 l 4.301,90.743 c 1.1716,24.738 9.062,48.15 22.285,65.78 9.0423,12.056 20.112,20.788 32.141,25.603 h 7.5e-4 c 12.029,-4.8155 23.099,-13.547 32.141,-25.603 13.223,-17.63 21.114,-41.042 22.285,-65.78 l 4.3015,-90.743 c -1.3658,-0.87636 -2.7404,-1.7223 -4.1275,-2.5372 l 7.5e-4,6.9e-4 -4.4025,92.891 c -1.1017,23.381 -8.557,45.51 -21.053,62.172 -8.2353,10.982 -18.252,19.042 -29.144,23.684 h -0.002 c -10.892,-4.6415 -20.908,-12.702 -29.143,-23.684 -12.497,-16.662 -19.952,-38.791 -21.053,-62.172 l -4.403,-92.892 h 7.5e-4"
         fill="#ed1c24"
         id="path5138" />
      <path
         d="m 279.76,115.34 c -17.042,-10.018 -35.616,-15.337 -54.601,-15.337 -18.986,0 -37.56,5.319 -54.602,15.337 l 4.4036,92.891 c 1.1012,23.381 8.5565,45.51 21.053,62.172 8.2358,10.982 18.252,19.042 29.144,23.684 h 0.002 c 10.892,-4.6415 20.909,-12.702 29.143,-23.684 12.497,-16.662 19.953,-38.791 21.053,-62.172"
         fill="#005da4"
         id="path5140" />
      <polyline
         transform="matrix(0.51795,0,0,0.69059,166.43,100)"
         points="119.76 62.917 124.43 56.539 116.57 57.394 113.39 50.161 110.2 57.394 102.34 56.539 107.01 62.917 102.34 69.295 110.2 68.44 113.39 75.673 116.57 68.44 124.43 69.295"
         fill="#ffdd00"
         id="polyline5142" />
      <polyline
         transform="matrix(0.51795,0,0,0.69059,166.43,100)"
         points="90 23.232 94.669 16.854 86.811 17.709 83.622 10.476 80.433 17.709 72.575 16.854 77.244 23.232 72.575 29.61 80.433 28.755 83.622 35.988 86.811 28.755 94.669 29.61"
         fill="#ffdd00"
         id="polyline5144" />
      <polyline
         transform="matrix(0.51795,0,0,0.69059,166.43,100)"
         points="149.53 23.232 154.2 16.854 146.34 17.709 143.15 10.476 139.96 17.709 132.1 16.854 136.77 23.232 132.1 29.61 139.96 28.755 143.15 35.988 146.34 28.755 154.2 29.61"
         fill="#ffdd00"
         id="polyline5146" />
      <path
         d="m 269.21,221.75 -22.024,-39.152 -8.8092,15.661 -13.214,-35.237 -13.214,35.237 -8.8092,-15.661 -22.023,39.152 c 0,5.1919 1.5471,10.17 4.3005,13.842 2.7534,3.6698 6.4873,5.734 10.382,5.734 2.6001,0 5.1292,-0.91987 7.3419,-2.6236 0.0145,-0.0124 -0.0176,0.0138 -0.004,0.003 1.1027,-0.84943 2.2924,-1.511 3.5433,-1.9572 3.7613,-1.3432 7.7687,-0.64087 11.141,1.9544 2.2515,1.7334 4.7868,2.6236 7.3424,2.6236 h -0.002 c 2.5561,0 5.0909,-0.89018 7.3429,-2.6236 3.3718,-2.5952 7.3797,-3.299 11.141,-1.9544 1.2503,0.44611 2.44,1.1077 3.5428,1.9572 0.015,0.011 -0.0171,-0.0145 -0.003,-0.003 2.2132,1.7037 4.7413,2.6236 7.3414,2.6236 3.895,0 7.6288,-2.0635 10.382,-5.734 2.7534,-3.6712 4.3005,-8.6497 4.3005,-13.842"
         fill="#ffffff"
         id="path5148" />
      <path
         d="m 186.33,243.01 c 1.0105,2.6774 2.1215,5.29 3.3288,7.8272 0,0 -5.2e-4,0.001 0,0.003 3.0994,1.9005 6.6136,2.3107 9.9363,1.1236 1.2514,-0.44612 2.4406,-1.1084 3.5432,-1.9572 0.0145,-0.011 -0.0176,0.0138 -0.003,0.003 2.2127,-1.7051 4.7418,-2.6236 7.3419,-2.6236 h -0.001 c 2.5556,-0.001 5.0909,0.88879 7.3424,2.6236 3.3724,2.5952 7.3797,3.2976 11.142,1.9544 1.2503,-0.44612 2.44,-1.1084 3.5428,-1.9572 0.015,-0.011 -0.0171,0.0138 -0.003,0.003 2.2121,-1.7051 4.7413,-2.6236 7.3424,-2.6236 h -0.002 c 2.5555,-0.001 5.0914,0.88879 7.3424,2.6236 3.3729,2.5952 7.3797,3.2976 11.141,1.9544 0.80747,-0.28729 1.588,-0.66643 2.337,-1.125 1.2078,-2.5386 2.3188,-5.1511 3.3294,-7.8272 v 0 c -0.73341,0.37223 -1.4446,0.82249 -2.1262,1.3473 -0.014,0.0111 0.0181,-0.0138 0.004,-0.003 -1.1027,0.84875 -2.2924,1.5096 -3.5438,1.9572 -3.7613,1.3432 -7.7681,0.64087 -11.141,-1.9558 -2.251,-1.7334 -4.7868,-2.6222 -7.3424,-2.6222 h 0.002 c -2.6006,0 -5.1297,0.91987 -7.3424,2.6236 -0.0139,0.0111 0.0181,-0.0138 0.003,-0.003 -1.1027,0.84943 -2.2924,1.511 -3.5428,1.9572 -3.7618,1.3446 -7.7692,0.64225 -11.142,-1.9544 -2.2515,-1.7334 -4.7868,-2.6236 -7.3424,-2.6236 h 0.002 c -2.6001,0 -5.1292,0.91987 -7.3419,2.625 -0.0145,0.011 0.0176,-0.0138 0.003,-0.003 -1.1027,0.84873 -2.2919,1.5096 -3.5432,1.9571 -3.7613,1.3432 -7.7687,0.64088 -11.141,-1.9558 -0.68421,-0.52623 -1.3948,-0.97511 -2.1241,-1.3446 -5.2e-4,0 0,-0.001 0,0"
         fill="#ffffff"
         id="path5150" />
      <path
         d="m 256.86,258.03 c -1.7108,2.9226 -3.5629,5.7202 -5.5508,8.3693 -7.4273,9.9031 -16.392,17.283 -26.147,21.73 h -5.2e-4 c -9.755,-4.446 -18.72,-11.825 -26.147,-21.73 -1.9874,-2.6491 -3.8395,-5.4467 -5.5503,-8.3693 0,0 -5.2e-4,0 0,0 2.0246,0.43437 4.1151,0.30248 6.134,-0.41781 1.2514,-0.44751 2.4406,-1.1084 3.5433,-1.9572 0.0145,-0.011 -0.0176,0.0138 -0.003,0.003 2.2126,-1.7051 4.7418,-2.6236 7.3419,-2.6236 h -0.001 c 2.5555,-0.001 5.0909,0.88879 7.3424,2.6222 3.3724,2.5966 7.3797,3.299 11.141,1.9558 1.2514,-0.44751 2.4411,-1.1084 3.5438,-1.9572 0.0139,-0.011 -0.0181,0.0138 -0.003,0.003 2.2121,-1.7051 4.7413,-2.6236 7.3414,-2.6236 h -7.5e-4 c 2.5555,-0.001 5.0904,0.88879 7.3424,2.6222 2.9368,2.2617 6.3567,3.0863 9.6752,2.3729 7.5e-4,0 0,0 -7.5e-4,10e-4"
         fill="#ffffff"
         id="path5152" />
    </g>
    <path
       style="fill:none;stroke:#000000;stroke-width:0.184673;stroke-miterlimit:4;stroke-dasharray:none;stroke-opacity:1"
       id="sl-copy"
       d="m 53.795491,84.690845 c -0.623479,0 -1.218663,0.165606 -1.093965,0.890346 0.04157,0.135888 0.290866,0.377236 0.166173,0.422532 -0.947307,-0.658965 -0.806335,0.0029 -1.357078,-0.181083 -0.719395,0.293323 -0.34606,0.482823 -0.595451,0.61871 -0.256588,0.154504 -0.108019,-0.15924 -0.456973,-0.196177 -0.174474,-0.0185 -0.423471,0.153808 -0.775469,0.105634 -0.178579,-0.02443 -0.553984,-0.06455 -0.636997,0.135815 -0.176642,0.426333 -0.104873,0.01415 -0.235407,0.04525 -0.07839,0.01869 -0.09746,0.289923 -0.207716,0.105634 -0.277871,0.315652 -0.168367,0.560965 -0.332346,0.694168 -0.48689,-3.14e-4 -0.308307,0.407644 -0.692385,0.452718 -0.08313,0.0453 -0.04153,0.437656 -0.124632,0.392356 -0.214744,-0.475357 -0.276834,-0.09807 -0.415431,-0.286722 -0.304823,-0.339565 -0.678357,0.06037 -1.010881,0.01507 -0.457155,-0.430109 -0.650665,-0.10561 -0.997035,-0.362175 -0.15258,-0.148627 -0.404674,0.04898 -0.761619,-0.105634 -0.01981,0.679087 -1.203709,1.056627 -1.190905,1.584513 -0.08312,0.543557 0.761513,0.346978 0.969339,0.528167 0.29096,0.271775 -0.346126,0.573225 -0.470819,0.980889 -0.166266,0.588852 0.498471,-0.04539 0.5816,0.181087 0.08314,0.226475 -0.484829,0.754429 -0.193865,0.935618 0.415657,0.271775 1.934135,1.407888 0.733927,1.327968 -0.195815,-0.134121 -0.263108,0.09054 -0.263108,0.09054 0,0 0.31846,0.125091 -0.01383,0.22636 -0.107014,0.0326 -0.201152,0.100225 -0.304651,0.07545 -0.08355,-0.01999 -0.05294,0.113954 -0.207715,0.09054 0.159179,0.160062 0.11078,0.301812 0.11078,0.301812 0.05243,0.02579 0.100796,0.0537 0.152328,0.07545 0.09746,0.04114 0.192447,0.0652 0.263103,0.03018 0.191047,-0.071 0.281098,-0.154358 0.429282,0.01507 0.01959,0.0747 0.137493,0.09938 0.235407,0.120725 0.3004,-0.424353 0.440823,-0.0212 0.470824,-0.347084 -0.345515,-0.252436 0.02588,-0.356727 0.138477,-0.181087 0.249395,0.09499 0.418205,0.158535 0.678539,0.150906 0,0 -0.03049,-0.208854 0.09693,-0.211269 0.186371,-0.0034 0.150174,0.124154 0.346193,0.181087 0.233439,-0.155855 0.453472,-0.226919 0.636997,-0.528171 0.0487,-0.229613 -0.08806,-0.183564 0.04153,-0.331993 0.09619,-0.118711 0.157101,-0.531619 0.332347,-0.437623 0.127282,0.06828 0.01383,0.196024 0.01383,0.286717 0,0.0907 0.163505,0.115234 0.2908,0.211268 0.158439,0.122449 -0.0067,0.258207 0.04153,0.301813 0.510207,0.196496 0.595393,0.45575 0.761624,0.362174 0.20073,-0.0747 0.130853,-0.117388 0.138477,-0.25654 0.01321,-0.241551 0.675698,0.05519 0.955488,0.392355 0.02566,-0.0053 0.199915,-0.01965 0.2908,-0.06036 0.0094,-0.08791 0.14009,-0.253672 0.346193,-0.120725 0.107709,0.0053 0.321062,-0.233071 0.235411,-0.226359 -0.310815,0.02429 -0.453884,-0.378936 -0.387734,-0.739435 0.07559,-0.08923 0.172777,-0.11973 0.166173,-0.196177 0.04724,-0.06605 0.122823,0.15473 0.221561,-0.01507 -0.11047,-0.214286 -0.347522,-0.511719 -0.346192,-0.150906 -0.129688,-0.122637 -0.163669,-0.08713 -0.207716,-0.316903 0.03918,-0.05335 0.13483,-0.178185 0.360043,-0.316902 0.225209,-0.138689 0.338773,-0.115365 0.387735,-0.120725 0.049,-0.0054 -0.03834,-0.07713 -0.01383,-0.135816 0.02451,-0.05867 0.07483,-0.06751 0.138477,-0.03018 0.06365,0.03733 0.124631,-0.165996 0.124631,-0.165996 0,0 0.07329,0.04452 0.08308,-0.03018 0.0064,0.0029 0.258765,0.07062 0.318501,0.120725 0.01467,-0.048 0.109797,-0.114471 0.207715,-0.135815 0.09792,-0.02134 -0.04308,-0.08688 -0.09693,-0.150906 -0.05394,-0.06403 0.004,-0.174834 0.01383,-0.196178 0.02903,-0.205474 0.07695,-0.371166 0.0277,-0.588534 0,-0.08537 0.05708,-0.233366 0.0277,-0.286721 -0.213464,-0.125718 -0.393718,-0.133131 -0.443127,-0.422537 0.0098,-0.09071 -0.07498,-0.0896 -0.05539,-0.105634 0.07922,-0.165553 0.139758,-0.31459 0.207716,-0.482895 0.06854,-0.04269 0.216527,0 0.30465,0 0.08809,0 0.04392,0.04341 0.08309,0.07545 0.181792,-0.20641 0.03949,-0.25201 0.138477,-0.362174 0.09139,-0.101718 0.03626,0.189089 0.969339,-0.573443 0.05385,-0.03733 -0.127467,-0.214316 -0.09694,-0.286722 0.03054,-0.07242 0.230373,-0.04785 0.318497,-0.09054 0.08813,-0.04269 0.102523,0.03095 0.166173,0.105634 0.03267,0.03202 0.172728,0.07593 0.193865,-0.04525 0,0 0.0414,0.03458 0.124631,0.04525 0.08324,0.01067 0.138477,0 0.138477,0 0.01538,-0.09456 -0.0031,-0.18524 -0.09694,-0.211268 -0.05329,-0.146768 -0.144083,-0.272761 -0.180019,-0.452719 -0.02003,-0.100172 0.429884,-0.454022 0.512366,-0.422536 0.150803,0.05759 0.453707,0.238016 0.761623,0.407446 0.02424,-0.0096 0.05643,-0.01579 0.08309,-0.01507 -8.87e-4,-0.0048 8.86e-4,-0.01028 0,-0.01507 -0.872874,-0.770041 -1.107723,-2.188133 -1.273989,-2.188133 z" />
  </g>
</svg>
