<?xml version="1.0" encoding="UTF-8" standalone="no"?>
<!-- Created with Inkscape (http://www.inkscape.org/) -->

<svg
   width="6.0970001mm"
   height="6.3244019mm"
   viewBox="0 0 6.0970001 6.3244019"
   version="1.1"
   id="svg5219"
   xmlns="http://www.w3.org/2000/svg"
   xmlns:svg="http://www.w3.org/2000/svg">
  <defs
     id="defs5216">
    <clipPath
       clipPathUnits="userSpaceOnUse"
       id="clipPath21868">
      <path
         fill-rule="evenodd"
         clip-rule="evenodd"
         fill="#fa4a00"
         stroke="#fa4a00"
         d="m 481.63264,-354.71973 c 0,32.70303 -81.07774,6.06802 -116.65881,20.31943 -29.5106,12.3836 -34.56924,45.41639 -42.02274,67.95996 -11.93926,40.17227 -51.5677,34.15889 -74.56885,34.15889 -41.11258,0 -29.5106,16.83187 -58.54889,40.85836 -16.66062,13.18044 -67.38484,22.2143 -91.83624,27.12915 -42.427807,8.53973 -16.998467,49.06883 -91.7690092,34.10377 -58.5488928,-12.02678 -42.0232968,36.025697 -42.0232968,60.820962 0,33.032789 3.813469,27.403789 -41.449299,27.403789 -26.812355,0 -79.762515,-25.591103 -100.571625,-34.158389 -31.73653,-12.768489 -31.73653,61.150227 -66.33967,68.0150809 -26.74513,5.5192467 -10.59014,28.0903751 0,61.0956001 8.76872,28.52989 -2.29373,43.933966 49.8813,54.478317 53.962,10.87361 36.82907,37.48106 24.88981,61.15023 -10.15174,20.64919 -58.68392,40.91349 -74.77111,54.47831 -31.80376,25.83868 53.962,69.38826 66.33967,74.65993 30.05013,12.3841 82.663011,12.02728 108.901936,6.7551 42.022732,-8.56728 68.16052957,0.74172 58.042691,34.15839 -12.377673,41.40813 -18.85266,45.47202 17.1329263,74.71556 25.4299047,20.64869 45.2605077,50.79832 75.2095147,74.82481 l 66.339672,54.34049 c 33.65852,27.40379 48.86946,15.76141 25.36211,54.1215 -19.83117,32.23645 67.31761,37.48106 83.47259,34.10376 44.24867,-9.0068 81.55004,-4.5054 116.65882,6.7546 15.21037,4.88629 40.57248,89.35086 42.02273,95.03448 4.079,17.60115 76.4914,41.62764 91.70178,47.72322 49.8135,20.2648 57.09864,34.04914 116.59158,34.04914 34.56924,0 52.68067,-29.27111 75.20952,-47.66859 33.65908,-27.40379 58.54889,-1.81419 58.54889,-54.36807 0,-40.11715 24.8898,-47.61346 -8.29698,-74.77018 -28.05979,-22.90039 72.84912,-23.28478 91.76957,-27.0194 36.424,-7.49631 87.14822,0 124.95523,0 45.19324,0 14.77253,18.39749 41.48374,-25.15209 17.0652,-28.52939 6.0033,-57.33391 -7.82465,-85.12209 -6.44166,-12.76849 -24.88981,-72.07897 -39.19003,-95.08961 -20.30291,-33.30742 -36.424,-41.24275 -16.59339,-73.53433 21.21418,-34.5979 29.03829,-45.41639 13.35561,-70.6236 -17.53743,-28.1455 -8.76872,-21.72016 -21.21362,-61.89194 -6.00325,-20.2648 -14.29966,-32.6484 -28.12758,-43.93397 -24.4514,-19.90747 -17.97641,-64.583151 -25.36211,-88.609139 -11.06245,-35.668877 1.85306,-48.849317 -8.29698,-81.525282 -11.06188,-36.41009 -31.36536,-47.66809 -41.48319,-81.415028 -9.67944,-30.835711 -41.55043,-37.178861 -66.91254,-47.723221 -19.83117,-7.8807 -36.35733,-70.56847 -41.88827,-88.16962 -4.62136,-16.09067 -81.07774,-31.96182 -91.70178,-34.15889 -36.49179,-7.13899 -89.50918,-1.18274 -116.79384,-6.7546 -34.13083,-6.80973 -20.16845,-54.86271 -33.62519,-81.52479 z"
         id="path21870"
         style="stroke:#000000;stroke-width:30.4315;stroke-opacity:1" />
    </clipPath>
  </defs>
  <g
     id="layer1"
     transform="translate(-147.9684,-58.477568)">
    <g
       id="g20895"
       transform="matrix(0.00363851,0,0,0.0038747,149.24086,60.560504)"
       clip-path="url(#clipPath21868)">
      <path
         d="M 14.435916,16.822223 V 270.49951 l 391.120854,1e-5 0.007,-254.48154 z"
         style="fill:#0072bc;stroke:none"
         id="Himmel" />
      <path
         d="m 405.55067,222.43313 0.006,48.06639 c 0,107.94937 -87.61107,195.56041 -195.56043,195.56042 -107.94934,0 -195.560424,-87.61105 -195.560421,-195.56042 l 0.01089,-48.06607 55.086781,-0.0106 v 49.71111 h 93.64185 v -49.71111 h 93.64185 v 49.71111 h 93.64182 v -49.71111 z"
         style="fill:#fff200;stroke:none"
         id="Mauer" />
      <path
         d="m 350.45911,272.13392 v -49.7111 h 55.09407 m -242.37774,49.7111 v -49.7111 h 93.64185 v 49.7111 M 14.439522,222.42282 h 55.094066 v 49.7111 m 234.104602,49.7111 v -49.7111 m -289.139193,0 H 405.46567 m -195.4693,0 v 49.7111 m -93.64187,0 v -49.7111 m 234.10465,49.7111 v 49.71111 m -93.64186,0 v -49.71111 m -235.329411,0 H 398.50306 m -235.32762,0 v 49.71111 m -93.641852,0 v -49.71111 m 234.104642,49.71111 v 49.7111 m -93.64186,0 v -49.7111 m -167.169249,0 H 377.15148 m -260.79698,0 v 49.7111 m 46.82094,38.90905 v -38.90905 m 93.64185,0 v 38.90905 m 77.69653,-38.90905 H 85.468033"
         style="fill:none;stroke:#000000;stroke-width:6;stroke-linecap:butt;stroke-linejoin:miter;stroke-miterlimit:4;stroke-dasharray:none"
         id="Linien" />
      <path
         d="M 14.435916,16.822223 V 270.49951 c 0,107.94938 87.611084,195.56043 195.560424,195.56043 107.94936,0 195.56043,-87.61105 195.56043,-195.56042 l 0.007,-254.48154 z"
         style="fill:none;stroke:#000000;stroke-width:8.87181;stroke-linecap:butt;stroke-linejoin:miter"
         id="Schild" />
      <g
         transform="translate(371.27793,-64.310238)"
         id="layer1-4">
        <g
           transform="matrix(0.393036,0,0,0.393036,-254.907,-5.01869)"
           id="g3645"
           style="fill:#e73521;fill-opacity:1;stroke:#000000;stroke-width:4.03592;stroke-miterlimit:4;stroke-dasharray:none;stroke-opacity:1">
          <g
             id="g7133"
             transform="translate(109.3183,303.3667)"
             style="fill:#e73521;fill-opacity:1;stroke:#000000;stroke-width:4.03592;stroke-miterlimit:4;stroke-dasharray:none;stroke-opacity:1" />
        </g>
        <path
           d="M 65.057977,81.675565 V 335.35286 c 0,107.94938 87.611093,195.56043 195.560433,195.56043 107.94936,0 195.56043,-87.61105 195.56043,-195.56042 l 0.007,-254.481548 z"
           style="fill:#ffffff;fill-opacity:1;stroke:#000000;stroke-width:8.87181;stroke-linecap:butt;stroke-linejoin:miter"
           id="path2539" />
        <g
           transform="matrix(1.4947873,0,0,1.4947873,-17.483753,-76.574378)"
           id="g4960"
           style="stroke:#000000;stroke-width:2.78969;stroke-miterlimit:4;stroke-dasharray:none;stroke-opacity:1">
          <g
             id="g10385"
             transform="matrix(0.41627,0.131298,-0.116826,0.467837,-161.5715,-68.27583)"
             style="fill:#f3d214;fill-opacity:1;stroke:#000000;stroke-width:6.08637;stroke-miterlimit:4;stroke-dasharray:none;stroke-opacity:1">
            <path
               style="fill:#f3d214;fill-opacity:1;fill-rule:evenodd;stroke:#000000;stroke-width:6.08637;stroke-linecap:butt;stroke-linejoin:miter;stroke-miterlimit:4;stroke-dasharray:none;stroke-opacity:1"
               d="m 774.09723,562.09068 c -4.66898,4.74745 -5.58448,9.85572 -7.73493,15.91796 -4.08674,10.75693 6.68959,7.58195 24.9157,6.85269 5.79618,-4.73278 4.51977,-10.9644 4.10821,-17.53929"
               id="path9442" />
            <path
               id="path8555"
               d="m 777.52513,568.12008 c -2.89168,5.11921 -2.75,10.2884 -3.42437,16.51075 -1.41115,11.0634 4.47488,2.39015 18.78327,0.15855 3.78672,-5.19763 3.82728,-6.68814 2.38599,-13.21019"
               style="fill:#f3d214;fill-opacity:1;fill-rule:evenodd;stroke:#000000;stroke-width:6.08637;stroke-linecap:butt;stroke-linejoin:miter;stroke-miterlimit:4;stroke-dasharray:none;stroke-opacity:1" />
          </g>
          <path
             style="fill:#e73521;fill-opacity:1;fill-rule:evenodd;stroke:#000000;stroke-width:2.78969;stroke-linecap:butt;stroke-linejoin:miter;stroke-miterlimit:4;stroke-dasharray:none;stroke-opacity:1"
             d="m 129.60764,246.98481 c -1.69667,3.09551 -2.12829,6.80375 -2.67831,10.27686 1.01868,4.20025 -1.52567,6.31478 -4.7775,8.2253 -6.30566,7.06355 -18.92531,9.30581 -19.69861,13.63252 0.44354,3.18555 -1.11494,6.60926 -3.555608,8.8947 -2.898932,4.23934 -3.737525,6.17891 -5.59778,9.79177 -3.329624,4.17289 4.929622,6.50601 8.369248,6.15787 2.19323,-0.0916 4.08102,-5.08252 4.16898,-0.15471 3.70106,1.11945 2.75733,-3.41668 2.73729,-5.84832 -0.0656,-4.62774 2.31437,-9.77001 3.23575,-14.31918 12.82543,-2.60847 9.04441,-3.48734 17.95707,-5.71186 10.117,0.19319 13.08485,-4.65804 16.35631,-9.1903 2.86556,-1.87335 4.88642,-2.9684 7.27535,-5.34088"
             id="path4973" />
          <g
             id="g10393"
             transform="matrix(0.368566,0,0,0.48611,-169.8223,33.48752)"
             style="fill:#f3d214;fill-opacity:1;stroke:#000000;stroke-width:6.5907;stroke-miterlimit:4;stroke-dasharray:none;stroke-opacity:1">
            <path
               style="fill:#f3d214;fill-opacity:1;fill-rule:evenodd;stroke:#000000;stroke-width:6.5907;stroke-linecap:butt;stroke-linejoin:miter;stroke-miterlimit:4;stroke-dasharray:none;stroke-opacity:1"
               d="m 1033.4721,561.59166 c -5.0374,3.66226 -6.6417,8.20805 -9.5339,13.44602 -5.3836,9.25443 5.0943,7.93262 22.1307,9.94915 6.0822,-3.48278 5.8164,-9.38074 6.4046,-15.46584"
               id="path9458" />
            <path
               id="path9456"
               d="m 1038.1272,567.49908 c -4.4733,4.32369 -5.4228,9.04707 -7.5503,14.63414 -4.0299,9.9091 6.1597,3.19882 23.3131,2.83761 5.533,-4.29058 4.4407,-6.14295 4.1676,-12.24996"
               style="fill:#f3d214;fill-opacity:1;fill-rule:evenodd;stroke:#000000;stroke-width:6.5907;stroke-linecap:butt;stroke-linejoin:miter;stroke-miterlimit:4;stroke-dasharray:none;stroke-opacity:1" />
          </g>
          <path
             style="fill:#e73521;fill-opacity:1;fill-rule:evenodd;stroke:#000000;stroke-width:2.78969;stroke-linecap:butt;stroke-linejoin:miter;stroke-miterlimit:4;stroke-dasharray:none;stroke-opacity:1"
             d="m 216.22679,255.94933 c 2.38914,0.22555 4.49448,2.70804 6.41289,4.23831 2.36545,1.84684 4.743,3.95575 5.60178,6.77116 1.78639,5.85641 5.40543,7.31104 2.36046,17.20433 -4.31797,7.14613 -7.52931,16.28486 -14.35037,19.73867 -2.31326,0.92935 -5.86571,1.32245 -6.49909,3.22924 -3.79712,2.87999 3.63912,7.035 9.13927,7.16391 3.10942,-1.82109 4.08781,-3.40403 4.70778,-2.01471 4.50533,-4.43729 6.90702,-10.91898 12.96508,-19.70801 1.66977,-2.11262 4.59612,-5.26245 8.94597,-6.86374 2.36172,-1.49555 2.14582,-4.92307 2.24793,-7.98711 0.36325,-4.34454 -1.11312,-9.16137 2.90914,-14.08929 1.37543,-2.06413 5.07193,-3.72523 1.20045,-5.76208"
             id="path4977" />
          <g
             id="g10389"
             transform="matrix(0.396526,-0.00443546,-0.05104673,0.582193,-180.5462,-19.36871)"
             style="fill:#f3d214;fill-opacity:1;stroke:#000000;stroke-width:5.80899;stroke-miterlimit:4;stroke-dasharray:none;stroke-opacity:1">
            <path
               id="path9452"
               d="m 941.01181,563.37411 c -5.19794,3.51535 -6.8534,7.87877 -9.83777,12.9066 -5.55518,8.88317 5.2567,7.61439 22.83613,9.55002 6.27604,-3.34307 6.00181,-9.00441 6.60876,-14.8454"
               style="fill:#f3d214;fill-opacity:1;fill-rule:evenodd;stroke:#000000;stroke-width:5.80899;stroke-linecap:butt;stroke-linejoin:miter;stroke-miterlimit:4;stroke-dasharray:none;stroke-opacity:1" />
            <path
               style="fill:#f3d214;fill-opacity:1;fill-rule:evenodd;stroke:#000000;stroke-width:5.80899;stroke-linecap:butt;stroke-linejoin:miter;stroke-miterlimit:4;stroke-dasharray:none;stroke-opacity:1"
               d="m 945.8153,569.04454 c -4.61583,4.15023 -5.59564,8.68413 -7.79095,14.04706 -4.15832,9.51157 5.78173,4.29859 23.48182,3.95187 5.70942,-4.11846 5.15661,-7.12461 4.87486,-12.98663"
               id="path9450" />
          </g>
          <g
             id="g10397"
             transform="matrix(0.312493,6.948947e-4,-0.04489061,0.456433,-76.9739,48.01134)"
             style="fill:#f3d214;fill-opacity:1;stroke:#000000;stroke-width:7.38585;stroke-miterlimit:4;stroke-dasharray:none;stroke-opacity:1">
            <path
               id="path9464"
               d="m 1181.2277,559.14281 c -5.0845,4.86058 -6.4619,10.45154 -9.1567,16.99311 -5.0516,11.58369 5.975,9.00547 24.2018,9.79708 6.2063,-4.74527 5.502,-11.77597 5.6907,-19.1118"
               style="fill:#f3d214;fill-opacity:1;fill-rule:evenodd;stroke:#000000;stroke-width:7.38585;stroke-linecap:butt;stroke-linejoin:miter;stroke-miterlimit:4;stroke-dasharray:none;stroke-opacity:1" />
            <path
               style="fill:#f3d214;fill-opacity:1;fill-rule:evenodd;stroke:#000000;stroke-width:7.38585;stroke-linecap:butt;stroke-linejoin:miter;stroke-miterlimit:4;stroke-dasharray:none;stroke-opacity:1"
               d="m 1186.5915,565.76722 c -4.4383,5.5982 -5.1081,11.33934 -6.9662,18.2258 -3.568,12.2381 6.3335,3.6804 24.5142,1.61629 5.5656,-5.65942 4.7071,-8.21112 3.9801,-15.49123"
               id="path9462" />
          </g>
          <path
             style="fill:#e73521;fill-opacity:1;fill-rule:evenodd;stroke:#000000;stroke-width:2.78969;stroke-linecap:butt;stroke-linejoin:miter;stroke-miterlimit:4;stroke-dasharray:none;stroke-opacity:1"
             d="m 86.859096,193.04663 c -0.494636,-1.46811 -3.724779,-2.86613 -5.041819,-4.08147 -3.864074,-3.5657 -2.321428,-9.51134 -3.121126,-14.40519 -1.167014,-4.9937 7.825779,7.57565 8.162945,8.16294 1.515771,2.64025 4.414207,9.24535 0,10.32372 z"
             id="path5873" />
          <path
             id="path4085"
             style="fill:#e73521;fill-opacity:1;fill-rule:evenodd;stroke:#000000;stroke-width:2.78969;stroke-linecap:butt;stroke-linejoin:miter;stroke-miterlimit:4;stroke-dasharray:none;stroke-opacity:1"
             d="m 282.17964,238.21129 c 7.51921,9.84791 12.21568,10.99956 10.80841,23.57975 6.24994,7.98684 2.14771,19.63764 -4.83721,25.89935 -0.69591,-8.21797 -4.16457,-15.57715 -0.58653,-24.42031 3.5321,-13.27358 -6.20898,-16.26049 -12.29479,-25.37921 -5.69698,-14.4181 -4.0447,-20.69596 -15.65671,-23.65153 8.97462,4.67137 1.71038,22.76771 4.60296,31.48356 2.04375,3.85171 2.29801,8.64177 4.0851,12.60901 0.73777,1.63786 3.30897,2.99255 5.52133,4.16069 1.91613,0.72039 1.93511,1.5467 2.24522,3.45986 0.58503,3.84949 0.80337,7.83008 0.87097,11.8395 0.0738,4.38285 0.68781,8.56006 0.68325,12.8782 0.72095,4.80562 2.46835,13.33692 2.75974,18.23294 0.11139,1.87144 -2.6267,5.60228 -4.66867,-1.33618 -2.69529,2.26401 -0.48533,4.71451 -2.11328,5.07031 -3.37634,-0.53773 -12.51804,-0.39502 -7.8147,-5.20121 3.09842,-4.85339 3.92616,-9.73088 3.79555,-15.87013 -0.23995,-4.59393 -5.12224,-8.70903 -5.62576,-12.96586 -0.53079,-4.48748 -2.53968,-7.4642 -6.16866,-9.47894 -8.26857,-6.01667 -14.33976,-2.57321 -19.52143,-12.25189 -6.59322,5.00854 -14.9393,3.3894 -22.2669,6.19608 -5.37611,1.49019 -11.55896,3.42853 -18.02078,7.0272 -9.12233,5.08036 -30.43726,4.88279 -41.25246,4.14607 -3.70096,-1.52465 -8.11207,-0.69832 -12.20556,-4.18072 -4.92356,-4.18853 -10.53306,-7.75297 -14.90285,-11.57397 -5.5717,-10.32434 -11.29293,-12.06798 -16.28715,-19.45802 -6.87732,-7.32475 -4.92582,-11.50601 -12.01144,-6.91804 -3.697603,1.12552 -6.05468,1.38782 -9.677666,7.04862 -1.79349,2.80228 -6.722299,2.26971 -10.093282,1.71105 -6.660027,-1.2428 -4.70332,-5.26665 -8.636267,-8.59761 -0.362827,-1.25587 -1.881876,-3.6543 -0.936357,-4.17059 8.497423,-4.6399 9.71532,-15.25948 7.756008,-21.55404 -0.455407,-1.46307 1.579977,-3.4552 2.104503,-4.84037 2.498412,-3.27014 3.23186,-8.1484 3.35797,-12.59057 0.128841,-4.53841 3.566857,-4.18881 12.003822,-3.86516 3.544989,0.65198 8.207809,-0.68639 11.106069,1.38749 1.84725,1.32183 3.76998,2.03669 5.71839,2.62506 2.19009,0.66134 2.85206,2.48334 5.0363,3.50736 6.76288,3.17059 15.49812,5.77562 23.14948,5.31981 7.47971,0.0149 14.97038,-1.52697 22.43987,-1.38391 13.01039,0.70085 36.32536,2.12404 49.35407,1.38351 16.73048,0.75954 30.16787,-10.27904 47.29705,8.88321 16.88804,6.63259 11.9479,19.53813 20.88239,31.23963 z" />
          <path
             style="fill:#f3d214;fill-opacity:1;fill-rule:evenodd;stroke:#000000;stroke-width:2.78969;stroke-linecap:butt;stroke-linejoin:miter;stroke-miterlimit:4;stroke-dasharray:none;stroke-opacity:1"
             d="m 100.06387,185.36386 c -2.145861,-15.62918 -27.761912,-12.81801 -6.885372,-32.52121 -17.426772,6.77362 -15.821609,15.7825 -9.165329,21.26454 4.915867,4.04865 10.512389,6.92336 7.329469,11.22405 3.198064,1.59023 6.241157,1.10306 8.721232,0.0326 z"
             id="path5869" />
          <path
             style="fill:#f3d214;fill-opacity:1;fill-rule:evenodd;stroke:#000000;stroke-width:2.78969;stroke-linecap:butt;stroke-linejoin:miter;stroke-miterlimit:4;stroke-dasharray:none;stroke-opacity:1"
             d="m 104.2642,182.02395 c 5.06019,-3.08729 8.21295,-5.78035 9.74247,-8.41446 3.33962,-5.75148 -1.05963,-11.2219 -10.23985,-19.90142 10.70798,2.29991 16.17266,9.26949 16.85726,16.4909 1.12018,11.81611 -11.43795,11.8698 -11.39091,17.73072 -4.73932,-0.57058 -8.15525,-1.24897 -4.96897,-5.90574 z"
             id="path5867" />
          <path
             style="fill:#e73521;fill-opacity:1;fill-rule:evenodd;stroke:#000000;stroke-width:2.78969;stroke-linecap:butt;stroke-linejoin:miter;stroke-miterlimit:4;stroke-dasharray:none;stroke-opacity:1"
             d="m 107.02637,193.52681 c 0,2.72437 4.12318,5.66289 6.72243,6.96251 8.91088,3.48212 18.64479,0.98903 22.4777,-6.29033 0.36694,-0.69687 0.0851,-1.43761 0.35001,-2.22117 -4.20923,-0.74568 -6.05282,0.24312 -14.42468,1.18886 -4.56459,-0.0454 -8.87866,-1.56057 -13.44485,-1.56057 -2.74551,0 -0.27854,1.44052 0.8403,1.44052 3.54843,-0.004 4.45642,0.15864 9.84355,1.08039 2.08771,0.83509 7.02308,-1.08148 5.76208,1.44052 -3.14821,5.34552 -14.55817,3.56677 -18.12654,-2.04073 z"
             id="path5875" />
          <path
             style="fill:#e73521;fill-opacity:1;fill-rule:evenodd;stroke:#000000;stroke-width:2.78969;stroke-linecap:butt;stroke-linejoin:miter;stroke-miterlimit:4;stroke-dasharray:none;stroke-opacity:1"
             d="m 140.87858,246.34585 c 3.61098,14.76651 17.06654,23.51893 19.72005,25.95746 1.58115,1.45305 3.15574,7.41236 4.01539,12.64058 0.45757,2.78279 -1.20811,5.35846 -1.26245,6.93725 -0.81445,9.4717 -1.30053,13.5611 -3.75048,19.57849 3.96558,2.8227 9.92975,3.45947 13.09568,0.7979 1.90646,-1.93173 1.29627,-6.35188 1.71196,-4.44293 0.35074,1.67891 4.70577,3.88904 4.35645,0.15545 -0.0178,-3.22135 -3.99321,-6.33174 -4.59031,-10.60144 -0.34476,-3.13207 1.58858,-6.33164 1.15623,-9.51357 -0.82563,-6.07624 -1.523,-12.08819 -0.9922,-17.44309 0.27415,-2.76572 3.58452,-14.31076 0.80625,-19.02427"
             id="path4975" />
          <path
             style="fill:#e73521;fill-opacity:1;fill-rule:evenodd;stroke:#000000;stroke-width:2.78969;stroke-linecap:butt;stroke-linejoin:miter;stroke-miterlimit:4;stroke-dasharray:none;stroke-opacity:1"
             d="m 93.269926,216.64677 c -0.357749,0.27202 1.340107,-1.69591 0.591315,-4.15889 -0.825561,-5.41556 3.481823,-3.98618 7.751239,-4.37973 1.49331,-0.54831 2.04629,-2.18252 2.21354,-2.2577 -0.0115,-0.12189 -2.11204,3.93344 -4.15985,4.29083 -1.312842,4.03104 -1.44208,3.55202 -4.087421,4.22317 -1.355314,0.34386 -0.801735,1.16522 -2.308823,2.28232 z"
             id="path7655" />
          <path
             style="fill:#e73521;fill-opacity:1;stroke:#000000;stroke-width:2.78969;stroke-miterlimit:4;stroke-dasharray:none;stroke-opacity:1"
             d="m 99.005058,211.05309 c 0,1.39785 -1.41437,2.53234 -2.417528,2.53234 -1.003156,0 -1.817313,-1.13449 -1.817313,-2.53234 0,-1.39786 0.814157,-2.53235 1.817313,-2.53235 1.003158,0 2.417528,1.13449 2.417528,2.53235 z"
             id="path8543" />
          <path
             style="fill:#e73521;fill-opacity:1;fill-rule:evenodd;stroke:#000000;stroke-width:2.78969;stroke-linecap:butt;stroke-linejoin:miter;stroke-miterlimit:4;stroke-dasharray:none;stroke-opacity:1"
             d="m 80.376757,209.13243 c 0.499796,1.67068 2.278744,2.46887 4.561647,3.12113 0.153901,0.044 0.320116,0 0.480172,0"
             id="path8545" />
          <path
             style="fill:#e73521;fill-opacity:1;fill-rule:evenodd;stroke:#000000;stroke-width:2.78969;stroke-linecap:butt;stroke-linejoin:miter;stroke-miterlimit:4;stroke-dasharray:none;stroke-opacity:1"
             d="m 104.98564,230.14001 c 5.7486,-0.83726 8.57902,-5.07374 9.60346,-10.08364"
             id="path8547" />
          <path
             style="fill:#e73521;fill-opacity:1;fill-rule:evenodd;stroke:#000000;stroke-width:2.78969;stroke-linecap:butt;stroke-linejoin:miter;stroke-miterlimit:4;stroke-dasharray:none;stroke-opacity:1"
             d="m 89.740136,189.92551 c 0.400142,-1.60058 4.352328,1.92069 6.002163,1.92069 2.281633,0 3.003318,0.32956 5.281911,-0.24009"
             id="path8549" />
          <path
             style="fill:#e73521;fill-opacity:1;fill-rule:evenodd;stroke:#000000;stroke-width:2.78969;stroke-linecap:butt;stroke-linejoin:miter;stroke-miterlimit:4;stroke-dasharray:none;stroke-opacity:1"
             d="m 91.900915,238.423 c 0.838597,-0.20965 1.768811,-2.2735 2.160778,-3.84139 0.444343,-1.77737 0.04999,-3.80126 0.480176,-5.52199 0.167197,-0.66879 0.349067,-1.0472 0.480172,-1.44052"
             id="path8551" />
          <path
             style="fill:#e73521;fill-opacity:1;fill-rule:evenodd;stroke:#000000;stroke-width:2.78969;stroke-linecap:butt;stroke-linejoin:miter;stroke-miterlimit:4;stroke-dasharray:none;stroke-opacity:1"
             d="m 82.057363,230.26006 -0.960344,1.44051"
             id="path8553" />
          <path
             style="fill:#e73521;fill-opacity:1;fill-rule:evenodd;stroke:#000000;stroke-width:2.78969;stroke-linecap:butt;stroke-linejoin:miter;stroke-miterlimit:4;stroke-dasharray:none;stroke-opacity:1"
             d="m 80.376757,234.34153 c -0.776572,-0.34963 -4.853291,-0.13697 -3.361212,-3.12113 0.591491,-1.18298 1.911145,-1.61819 3.121126,-1.92069 2.009522,-0.50238 3.046037,1.91698 1.44052,3.12113 -0.603994,0.45299 -0.728795,1.33114 -1.200434,1.92069 z"
             id="path10402" />
          <path
             style="fill:#e73521;fill-opacity:1;fill-rule:evenodd;stroke:#000000;stroke-width:2.78969;stroke-linecap:butt;stroke-linejoin:miter;stroke-miterlimit:4;stroke-dasharray:none;stroke-opacity:1"
             d="m 238.7224,257.51842 c -2.67937,-6.3718 -10.12642,-8.15705 -15.1958,-20.87547"
             id="path11289" />
        </g>
      </g>
    </g>
    <path
       fill-rule="evenodd"
       clip-rule="evenodd"
       fill="#fa4a00"
       stroke="#fa4a00"
       d="m 151.48727,58.555184 c 0,0.172653 -0.37971,0.03204 -0.54634,0.107275 -0.13821,0.06538 -0.1619,0.239773 -0.1968,0.358791 -0.0559,0.212087 -0.24151,0.18034 -0.34923,0.18034 -0.19254,0 -0.1382,0.08886 -0.2742,0.215709 -0.078,0.06959 -0.31558,0.117279 -0.43009,0.143227 -0.1987,0.04509 -0.0796,0.259056 -0.42977,0.180049 -0.2742,-0.06349 -0.19681,0.190196 -0.19681,0.321101 0,0.174395 0.0179,0.144677 -0.19411,0.144677 -0.12557,0 -0.37355,-0.135107 -0.47101,-0.180338 -0.14863,-0.06741 -0.14863,0.32284 -0.31068,0.359082 -0.12525,0.02914 -0.0496,0.148302 0,0.322551 0.0411,0.150622 -0.0107,0.231947 0.23361,0.287616 0.25271,0.05741 0.17248,0.197879 0.11656,0.322839 -0.0475,0.109016 -0.27483,0.216 -0.35017,0.287615 -0.14894,0.136414 0.25272,0.366332 0.31069,0.394163 0.14073,0.06538 0.38712,0.0635 0.51001,0.03566 0.1968,-0.04523 0.31921,0.0039 0.27183,0.180338 -0.058,0.218612 -0.0883,0.240067 0.0802,0.394456 0.11909,0.109014 0.21196,0.268187 0.35222,0.395034 l 0.31068,0.286888 c 0.15763,0.144676 0.22887,0.08321 0.11878,0.285731 -0.0929,0.170191 0.31526,0.197879 0.39092,0.180049 0.20723,-0.04755 0.38192,-0.02379 0.54634,0.03566 0.0712,0.0258 0.19001,0.471723 0.19681,0.501729 0.0191,0.09292 0.35822,0.219771 0.42946,0.251952 0.23328,0.106987 0.2674,0.179761 0.54602,0.179761 0.1619,0 0.24672,-0.154535 0.35223,-0.251664 0.15763,-0.144677 0.2742,-0.0096 0.2742,-0.287033 0,-0.211797 0.11656,-0.251373 -0.0389,-0.394745 -0.13142,-0.120902 0.34117,-0.122931 0.42977,-0.142648 0.17059,-0.03958 0.40814,0 0.5852,0 0.21165,0 0.0692,0.09713 0.19428,-0.132789 0.0799,-0.150619 0.0281,-0.302691 -0.0367,-0.449397 -0.0302,-0.06741 -0.11657,-0.380537 -0.18354,-0.502021 -0.0951,-0.175844 -0.17058,-0.217739 -0.0777,-0.38822 0.0993,-0.182658 0.13599,-0.239774 0.0625,-0.372854 -0.0821,-0.148592 -0.0411,-0.11467 -0.0993,-0.326755 -0.0281,-0.106987 -0.067,-0.172365 -0.13173,-0.231947 -0.11451,-0.1051 -0.0842,-0.340963 -0.11877,-0.467807 -0.0518,-0.188312 0.009,-0.257897 -0.0389,-0.430408 -0.0518,-0.192225 -0.14689,-0.251661 -0.19428,-0.429826 -0.0453,-0.162796 -0.19459,-0.196284 -0.31337,-0.251953 -0.0929,-0.0416 -0.17027,-0.372562 -0.19617,-0.465486 -0.0216,-0.08495 -0.37971,-0.168741 -0.42946,-0.18034 -0.1709,-0.03769 -0.41919,-0.0062 -0.54697,-0.03566 -0.15985,-0.03595 -0.0945,-0.289644 -0.15748,-0.430405 z"
       id="lusatia-copy"
       style="fill:none;fill-opacity:1;stroke:#000000;stroke-width:0.151318;stroke-dasharray:0.151318, 0.151318;stroke-dashoffset:0;stroke-opacity:1" />
  </g>
</svg>
