<?xml version="1.0" encoding="UTF-8" standalone="no"?>
<!-- Created with Inkscape (http://www.inkscape.org/) -->

<svg
   width="35.041603mm"
   height="33.167049mm"
   viewBox="0 0 35.041603 33.167049"
   version="1.1"
   id="svg4114"
   xmlns="http://www.w3.org/2000/svg"
   xmlns:svg="http://www.w3.org/2000/svg">
  <defs
     id="defs4111">
    <clipPath
       clipPathUnits="userSpaceOnUse"
       id="clipPath5973">
      <path
         style="fill:#c0c0c0;stroke:#000000;stroke-width:0.0400587;stroke-miterlimit:4;stroke-dasharray:none;stroke-opacity:1"
         id="path5975"
         d="m 4.0899374,0.47276509 c 0,0 -0.4530646,0.072013 -0.6334218,0.17770785 C 3.3310096,0.72402455 3.3277767,0.7958285 3.2049657,0.87341586 3.1230904,0.92190775 3.0322494,0.8830832 2.9685696,0.94126848 2.8139202,1.0867424 2.8958569,1.1771293 2.8109716,1.2482178 2.6714672,1.3726366 2.3995948,1.5226188 2.1593658,1.6004027 2.0869647,1.6238462 1.9591882,1.7068867 1.8866006,1.7328761 1.8222496,1.7559151 1.741126,1.8104204 1.741126,1.8104204 c 0,0 -0.083897,0.1335349 -0.1000136,0.2552533 -0.01686,0.1273368 -0.046064,0.095876 -0.054553,0.1518595 -0.01531,0.1009572 0.03937,0.081223 0.045461,0.1066251 -0.00746,0.1286064 0.083104,0.097504 0.08486,0.2132489 1.737e-4,0.012938 -0.017927,0.068303 -0.054553,0.048466 -0.032226,-0.017454 0.020792,-0.090254 -0.075768,-0.2520214 -0.046124,-0.077272 -0.104623,-0.017134 -0.1757814,-0.1292426 -0.051567,-0.00321 0.018381,0.047508 -0.024246,0.058159 7.759e-4,3.965e-4 -0.00112,0.00333 0,0.00322 0.018194,0.1551747 0.127279,0.432909 0.1454746,0.5298922 0.00683,0.05819 -0.00674,0.082433 -0.021215,0.1357047 -0.014476,0.053271 -0.028925,0.1357137 -0.063645,0.1777078 -0.032833,0.039711 -0.099607,0.075973 -0.093953,0.1260102 0.012103,0.107183 -0.037135,0.086406 -0.021215,0.1324733 0.018196,0.05819 0.105477,0.037523 0.1818437,0.106625 0.082347,0.074514 0.1887682,0.1318157 0.2000282,0.2035567 0.015001,0.095584 0.0019,0.1139686 -0.015154,0.1518596 -0.017051,0.03789 -0.053061,0.095285 -0.012123,0.1486277 0.025147,0.082761 0.090911,0.06782 0.1091055,0.1260107 0.027292,0.048492 -0.0091,0.1162924 0,0.1647842 0.0091,0.029095 0.045456,0.019375 0.054554,0.038773 -0.033808,0.1455691 0.03495,0.1526402 -0.090922,0.290795 -0.027292,0.043641 0.025463,0.037639 0.033338,0.084006 0.00926,0.054476 0.053549,0.1067163 0.075768,0.1389354 0.065341,0.080477 -0.045476,0.1066036 -0.018184,0.1453975 0.036387,0.05819 0.1181773,0.038752 0.1545666,0.077546 0.081965,0.057238 0.056527,0.1219976 0.090922,0.1970946 0.059526,0.1299609 0.019902,0.1870891 -0.00606,0.2778697 -0.027323,0.095538 -0.044443,0.1720496 -0.057583,0.2326363 -0.00358,0.027308 -0.010187,0.039377 -0.018185,0.071083 0.2797176,0.05006 -0.036506,-0.2455854 0.2182128,-0.1970947 0.1637478,0.019398 0.027222,0.096889 0.1272907,0.1744771 0.1455527,0.1260793 0.2636101,0.03873 0.3818707,0.1163191 0.036389,0.029095 0.027266,0.077529 0.045461,0.106625 0.018194,0.0097 0.027273,-0.019387 0.036369,-0.019387 0.02729,-0.0097 0.054548,-0.02911 0.063645,-0.00969 0.027291,0.029095 -1.44e-5,0.077528 0.027277,0.1066239 0,0 0.2000021,-0.1163337 0.2454887,-0.087238 0.2456207,0.1260776 -0.1000228,0.174408 -0.08183,0.3004872 l 0.2091208,0.1357047 c 0.027291,0.038794 0.081757,0.2908267 0.2182122,0.2326357 0.036389,-0.019396 0.027261,-0.087223 0.054552,-0.1163178 C 3.6050505,6.52773 3.6959317,6.547166 3.7232232,6.488976 3.7323232,6.469579 3.5322557,6.2563454 3.5868406,6.2466469 c 0.1364556,-0.019398 0.2909046,0.1259954 0.3727788,0.1550903 0.036388,0.0097 0.081809,-0.00969 0.1181981,-0.00969 0.036389,0 0.081809,0.019396 0.1181981,0 0.018194,-0.0097 0.00909,-0.048455 0.018184,-0.067852 0.0091,-0.0097 0.027277,-0.0097 0.027277,0 0.1091658,0.2327621 0.036432,0.087174 -0.08183,0.2035562 -0.036388,0.029095 0.090901,0.038758 0.1272906,0.067853 0.02729,0.029095 0.018169,0.07753 0.04546,0.1066245 0.018195,0.019397 0.045451,0.02908 0.063645,0.02908 0.2638169,-0.029095 -0.036453,-0.04843 0.1181987,-0.1163179 0.018194,-0.0097 0.018173,0.029075 0.036369,0.038772 0.036387,0.029096 0.1363589,0.058154 0.1818431,0.067853 0.054582,0.019398 0.1363577,-0.00972 0.1818437,0.029079 0.0091,0.0097 0.090917,0.2423235 0.1000135,0.2520214 0.036389,0.029096 0.1090853,-2.15e-5 0.1454746,0.038773 0.036389,0.048491 0.00907,0.1389082 0.045461,0.1874012 0.00455,0.00728 0.012265,0.00969 0.021215,0.00969 0.017899,-1.2e-6 0.040441,-0.00969 0.060615,-0.00969 0.010086,0 0.020454,0.00242 0.027276,0.00969 0.00683,0.00728 0.00909,0.018176 0.00909,0.02908 1.7e-6,0.021809 -0.00909,0.046043 -0.00909,0.067852 0,0.010904 0.00227,0.021806 0.00909,0.02908 0.1455539,0.1260787 0.2636235,-0.3716085 0.3545948,-0.3037191 0.054582,0.038794 0.054529,0.1292165 0.1000136,0.1777079 0.00228,0.00243 0.00729,0.00121 0.012123,0 0.00483,-0.00121 0.00948,-0.00403 0.015154,-0.00646 0.011365,-0.00485 0.022729,-0.00807 0.027277,-0.00322 0.0091,0.019396 -0.027288,0.058155 -0.00909,0.067852 0.045484,0.0097 0.090903,-0.038783 0.1272906,-0.019386 0.06368,0.029095 0.00909,0.2132382 0.00909,0.2326352 0,0.048493 0.081804,-0.029075 0.1272907,-0.038772 0.036388,-0.0097 0.072717,0.067862 0.1091066,0.048465 0.00228,-0.00243 0.010753,-0.021709 0.024245,-0.051696 0.013491,-0.029987 0.032395,-0.069872 0.054553,-0.1098558 0.011079,-0.019991 0.023602,-0.042193 0.036369,-0.06139 0.012766,-0.019197 0.025262,-0.035491 0.039399,-0.051697 0.014137,-0.016206 0.030273,-0.030984 0.04546,-0.042003 0.015188,-0.01102 0.029541,-0.018981 0.045461,-0.022617 0.036389,-0.0097 0.075748,0.02908 0.1121369,0.02908 0.036388,-0.0097 0.054532,-0.067858 0.090922,-0.058159 0.072776,0.0097 0.1181587,0.1163178 0.1909357,0.1163178 0.054582,0 0.099999,-0.058133 0.1272906,-0.1066244 0.0091,-0.019398 -0.045461,-0.019376 -0.045461,-0.038773 0.027291,-0.1357766 0.081811,1.02e-5 0.1181975,-0.019386 0.00683,-0.00243 0.010892,-0.00904 0.015154,-0.016155 0.00853,-0.014237 0.015723,-0.033422 0.024246,-0.045235 0.00214,-0.00296 0.00339,-0.00476 0.00606,-0.00646 0.00267,-0.00169 0.00569,-0.00322 0.00909,-0.00322 0.034114,-0.0097 0.077257,-0.016355 0.1272906,-0.019386 0.037526,-0.00227 0.077177,-0.00237 0.1181987,0 0.00608,2.832e-4 0.012089,0.00278 0.018184,0.00322 0.03537,0.00259 0.072022,0.00669 0.1060753,0.012925 0.019813,0.00367 0.039034,0.00796 0.057584,0.012924 0.018143,0.00484 0.035182,0.010008 0.051522,0.016155 0.011064,0.00417 0.023322,0.00815 0.033339,0.012925 0.00412,0.00202 0.00822,0.00435 0.012122,0.00646 0.014679,0.00784 0.027961,0.016468 0.0394,0.025848 0.013645,0.014548 0.018567,0.038373 0.024246,0.06139 0.00284,0.011509 0.00441,0.022769 0.00909,0.03231 0.00468,0.00954 0.012118,0.017768 0.021215,0.022618 0.054582,0.038794 0.1181627,0.038762 0.1818431,0.058159 0.081875,0.029095 0.1060306,0.035537 0.1879054,0.045235 0.016847,0.00432 0.031822,0.00808 0.046976,0.01131 0.033353,0.017775 0.068177,0.00807 0.095467,0.01777 0.045486,0 0.060589,-0.022623 0.1060753,-0.012924 0.013078,0.00697 0.037227,0.031328 0.045461,0.038772 C 8.2846076,7.1552116 8.2827859,7.3517239 8.2117137,7.1868977 8.1753243,7.1481032 8.235964,7.1126091 8.2268674,7.0641178 8.1995769,6.9671329 8.1056477,6.8476947 8.0874545,6.741013 c -0.0013,-0.0067 1.737e-4,-0.016146 0.00303,-0.02908 0.00858,-0.038802 0.035656,-0.1038147 0.072738,-0.1841705 0.024721,-0.05357 0.052474,-0.1137278 0.08486,-0.1777078 C 8.4100085,6.030154 8.6431074,5.6195968 8.6966292,5.5229042 8.8603769,5.377428 8.9027041,5.5650972 8.9299956,5.2159549 c 0,-0.077587 -0.136378,-0.2261685 -0.1454746,-0.235867 -0.022743,-0.048494 0.012117,-0.063419 0.048491,-0.071083 0.018186,-0.00384 0.035989,-0.00712 0.048491,-0.00969 0.012504,-0.00257 0.018947,-0.00565 0.012123,-0.012925 C 8.7480728,4.7700128 8.4996755,4.5504633 8.4178013,4.3661936 c -0.0091,-0.024246 -0.00985,-0.048069 -0.00909,-0.074314 4.054e-4,-0.013123 8.744e-4,-0.028221 0,-0.042004 -8.744e-4,-0.013782 -0.00151,-0.027457 -0.00606,-0.042004 C 8.4034273,4.1784176 8.3026378,4.056012 8.3026378,4.056012 v -0.00323 c -0.00297,1.133e-4 -0.00613,-1.133e-4 -0.00909,0 -0.063679,-0.1527495 0.1084946,-0.4584707 0.030307,-0.6365167 -4.054e-4,-8.271e-4 4.053e-4,-0.00241 0,-0.00323 -0.00617,-0.012099 -0.012603,-0.021331 -0.021215,-0.03231 -0.0083,-0.01131 -0.018936,-0.022613 -0.030307,-0.03231 -0.072776,-0.058191 -0.163614,-0.087234 -0.2454881,-0.096932 -0.0091,-0.00485 -0.018188,0.00322 -0.027277,0.012924 -5.849e-4,6.231e-4 5.79e-4,0.00263 0,0.00322 -0.00284,0.00301 -0.00626,0.00407 -0.00909,0.00646 -0.00174,0.00159 -0.00433,0.00209 -0.00606,0.00323 -0.00368,0.00183 -0.00845,0.0052 -0.012122,0.00322 -0.2638151,-0.1066828 0.3090979,-0.6203244 0.3727788,-0.6882139 0.00455,-0.00485 0.012502,-0.010907 0.018184,-0.019386 0.00284,-0.00424 0.00422,-0.01146 0.00606,-0.016155 0.00184,-0.0047 0.00303,-0.00807 0.00303,-0.012924 C 8.367227,2.4438536 8.3481305,2.345308 8.3208244,2.2498424 8.3117255,2.218021 8.3014887,2.187567 8.290517,2.1561415 8.2469263,2.0313041 8.1883071,1.9085168 8.1268573,1.7878011 c -4.054e-4,-8.271e-4 4.053e-4,-0.00241 0,-0.00322 C 8.0029901,1.541511 7.863228,1.3049007 7.7813544,1.0575909 7.7267724,1.0187975 7.781384,0.91223702 7.726802,0.83464909 7.5630548,0.58249116 7.6632948,0.7959384 7.4085757,0.67955821 7.3176043,0.64076425 7.3813733,0.51474902 7.2449171,0.56324034 c -0.027292,0.009698 -0.027262,0.0581479 -0.054553,0.0775454 -0.3807867,0.23827809 -1.486427,0.24378391 -2.0669542,0.19063256 -0.018154,0.0176142 -0.045811,0.073338 -0.066676,0.10016241 -0.051522,0.0662375 -0.090922,0.054933 -0.1363827,0.0969305 -0.00909,0.016155 -0.024055,0.029483 -0.054552,0.038773 -0.030497,0.00928 -0.078043,0.016156 -0.093952,0.025848 0.00758,-0.061389 -0.034486,-0.055482 -0.020848,-0.078098 0.013638,-0.0226175 0.1416597,-0.0664998 0.1818437,-0.0969316 0.039236,-0.0297147 0.1030553,-0.087896 0.1030553,-0.087896 l -0.040536,-0.0262477 c 0,0 -0.065834,0.0486199 -0.093042,0.0694337 C 4.6840183,0.99304097 4.6295156,1.067337 4.4081596,1.0026692 4.2262181,0.92508242 4.3566664,0.89610761 4.1960091,0.6989501 4.1778142,0.66985519 4.1778038,0.61493635 4.2111628,0.5890943 4.244515,0.56647676 4.4202715,0.66986539 4.4627127,0.67956388 4.4505765,0.61008824 4.3699051,0.53969657 4.1535784,0.52770375 4.1116554,0.52537544 4.0899339,0.47277585 4.0899339,0.47277585 Z M 1.7199106,1.8039583 c -0.00187,-0.00258 -0.00976,0.00245 -0.033337,0.016155 -0.047147,0.027416 -0.1343912,0.077707 -0.1515363,0.0937 -0.017145,0.015993 -0.027733,0.057766 -0.072738,0.064621 -0.045004,0.00685 -0.068603,-0.00646 -0.08789,-0.00646 -0.019288,0 -0.030307,-0.00323 -0.030307,-0.00323 7.759e-4,8.271e-4 0,0.00323 0,0.00323 l -0.021215,0.016155 0.00909,0.016155 0.00303,0.00646 v 0.016155 l 0.00303,0.022618 c 0,0 -0.00264,1.133e-4 -0.00303,0 v 0.00322 c 0,0 0.02403,0.028296 0.045461,0.042004 0.02143,0.013708 0.043317,0.040894 0.045461,0.022617 0.00214,-0.018278 0.00622,-0.045235 0.021215,-0.045235 0.015001,0 0.034593,0.00402 0.030306,-0.00969 -0.00429,-0.013709 -0.017816,-0.010803 -0.024246,-0.02908 -0.00643,-0.018278 -0.00804,-0.028134 0.00909,-0.025848 0.017144,0.00228 -5.791e-4,0.03231 0.027276,0.03231 0.02786,0 0.050418,0.00646 0.069706,0.00646 0.019287,0 0.052259,0.00757 0.039399,0.025848 -0.012858,0.018278 -0.00643,0.00891 0,0.022617 9.728e-4,0.00206 0.00261,0.00258 0.00303,0.00322 7.76e-4,-0.00457 0.00355,-0.014817 0.012122,-0.019386 0.017145,-0.00914 0.01125,0.00843 0.00909,-0.025848 -0.00214,-0.03427 -1.738e-4,-0.046898 0.021214,-0.074314 0.02143,-0.027417 0.024246,-0.029959 0.024246,-0.071083 0,-0.041125 -0.030371,-0.04122 0.00606,-0.054928 0.036432,-0.013709 0.047604,-0.013087 0.045461,-0.02908 -0.00108,-0.00799 0.00187,-0.016816 0,-0.019386 z" />
    </clipPath>
  </defs>
  <g
     id="layer1"
     transform="translate(-74.347754,-22.419109)">
    <g
       id="polish-flag"
       transform="matrix(4.569106,0,0,4.6704861,68.54458,20.30595)"
       clip-path="url(#clipPath5973)">
      <rect
         width="11.25"
         height="3.75"
         fill="#ffffff"
         id="rect5952"
         x="-0.043212861"
         y="0.25364918" />
      <rect
         y="4.0036492"
         width="11.25"
         height="3.75"
         fill="#dc143c"
         id="rect5954"
         x="-0.043212861" />
    </g>
    <path
       style="fill:none;stroke:#000000;stroke-width:0.185052;stroke-miterlimit:4;stroke-dasharray:none;stroke-opacity:1"
       id="pl-copy"
       d="m 87.182264,22.55255 c 0,0 -2.070099,0.336335 -2.894171,0.829984 -0.573449,0.34352 -0.588222,0.678879 -1.149358,1.041251 -0.374098,0.22648 -0.789161,0.04515 -1.08012,0.316903 -0.706608,0.679434 -0.332232,1.101585 -0.720081,1.433602 -0.63741,0.581097 -1.879625,1.281586 -2.977256,1.644876 -0.330809,0.109493 -0.914634,0.497333 -1.246293,0.618715 -0.294027,0.107604 -0.664689,0.36217 -0.664689,0.36217 0,0 -0.383338,0.623674 -0.456973,1.192157 -0.07704,0.594725 -0.210472,0.447788 -0.249258,0.709259 -0.06995,0.471517 0.179886,0.379351 0.207716,0.49799 -0.03408,0.600654 0.379712,0.455393 0.387734,0.995975 8.87e-4,0.06043 -0.08191,0.319008 -0.249257,0.226359 -0.147244,-0.08152 0.095,-0.421528 -0.346193,-1.177063 -0.210747,-0.360899 -0.478034,-0.08003 -0.803166,-0.603624 -0.235615,-0.01497 0.08398,0.221888 -0.11078,0.271631 0.0035,0.0019 -0.0051,0.01555 0,0.01507 0.08313,0.72474 0.581551,2.021894 0.664688,2.474854 0.0312,0.271776 -0.0308,0.385001 -0.09693,0.633805 -0.06614,0.248804 -0.132162,0.633849 -0.2908,0.829983 -0.150018,0.185468 -0.455116,0.35483 -0.429282,0.588529 0.0553,0.500598 -0.169674,0.403554 -0.09693,0.618715 0.08314,0.271776 0.481934,0.175249 0.830862,0.49799 0.376251,0.348016 0.862503,0.615643 0.91395,0.950708 0.06854,0.446426 0.0087,0.53229 -0.06924,0.709258 -0.07791,0.176968 -0.242441,0.445031 -0.05539,0.694163 0.114903,0.386537 0.415383,0.316753 0.498516,0.588534 0.124697,0.226479 -0.04157,0.543141 0,0.76962 0.04157,0.135888 0.207693,0.09049 0.249262,0.181088 -0.154472,0.679878 0.159689,0.712904 -0.415431,1.358154 -0.124698,0.203827 0.116343,0.17579 0.152323,0.392351 0.04233,0.25443 0.244675,0.498415 0.346192,0.648896 0.298548,0.375865 -0.207782,0.497888 -0.08308,0.679077 0.166253,0.271776 0.539965,0.180986 0.706231,0.362175 0.374505,0.267328 0.258277,0.569787 0.415431,0.920526 0.271981,0.606981 0.09093,0.873797 -0.0277,1.297787 -0.124844,0.446209 -0.203062,0.803555 -0.263103,1.086524 -0.01635,0.127543 -0.04655,0.183912 -0.08309,0.331993 1.278058,0.233806 -0.166803,-1.147002 0.997035,-0.920527 0.748181,0.0906 0.124383,0.452521 0.581604,0.814893 0.665048,0.588852 1.204463,0.180889 1.744809,0.543267 0.166266,0.135887 0.124582,0.362102 0.207715,0.497989 0.08313,0.0453 0.124609,-0.09054 0.166174,-0.09054 0.124693,-0.0453 0.249235,-0.13596 0.2908,-0.04525 0.124697,0.135888 -6.7e-5,0.362097 0.124631,0.497985 0,0 0.913831,-0.543334 1.121662,-0.407441 1.122269,0.588842 -0.457013,0.814569 -0.373889,1.403421 l 0.955493,0.633805 c 0.124697,0.181189 0.373556,1.358305 0.997035,1.086524 0.166267,-0.09059 0.12456,-0.407374 0.249258,-0.543262 0.207831,-0.181179 0.62308,-0.0904 0.747778,-0.362174 0.04157,-0.0906 -0.872551,-1.0865 -0.623147,-1.131796 0.623479,-0.0906 1.329174,0.588462 1.703266,0.724349 0.166262,0.0453 0.373796,-0.04525 0.540058,-0.04525 0.166266,0 0.373796,0.09059 0.540062,0 0.08313,-0.0453 0.04153,-0.226306 0.08308,-0.316903 0.04157,-0.0453 0.124632,-0.0453 0.124632,0 0.49879,1.087113 0.166461,0.407147 -0.373889,0.950708 -0.166262,0.135888 0.415338,0.181015 0.581604,0.316903 0.124693,0.135888 0.08302,0.362102 0.207716,0.49799 0.08313,0.09059 0.207671,0.135815 0.2908,0.135815 1.205406,-0.135888 -0.166559,-0.22619 0.540062,-0.543262 0.08313,-0.0453 0.08304,0.135792 0.166173,0.181088 0.166257,0.135888 0.62304,0.271606 0.830862,0.316902 0.249391,0.0906 0.623031,-0.04539 0.830862,0.135816 0.04157,0.0453 0.415409,1.131766 0.456973,1.177062 0.166267,0.135888 0.498423,-1.01e-4 0.664689,0.181087 0.166266,0.22648 0.04144,0.648771 0.207715,0.875255 0.02079,0.034 0.05604,0.04525 0.09694,0.04525 0.08178,-5e-6 0.18478,-0.04525 0.276954,-0.04525 0.04609,0 0.09346,0.0113 0.124627,0.04525 0.0312,0.034 0.04153,0.08489 0.04153,0.135815 9e-6,0.101858 -0.04153,0.215045 -0.04153,0.316903 0,0.05093 0.01037,0.101844 0.04153,0.135816 0.665052,0.588847 1.204525,-1.735594 1.620182,-1.418517 0.24939,0.181188 0.249147,0.603503 0.456973,0.829983 0.01041,0.01135 0.03333,0.0057 0.05539,0 0.02207,-0.0057 0.0433,-0.01883 0.06924,-0.03018 0.05193,-0.02265 0.103849,-0.03772 0.124631,-0.01507 0.04157,0.09059 -0.12468,0.271612 -0.04153,0.316903 0.207822,0.0453 0.415347,-0.181136 0.581604,-0.09054 0.290964,0.135888 0.04153,0.995927 0.04153,1.086519 0,0.226485 0.373774,-0.135791 0.581605,-0.181082 0.166262,-0.0453 0.332253,0.316946 0.498519,0.226354 0.01042,-0.01135 0.04913,-0.101395 0.110781,-0.241445 0.06164,-0.140055 0.148015,-0.326339 0.249258,-0.513081 0.05062,-0.09337 0.107838,-0.197061 0.166173,-0.286721 0.05833,-0.08966 0.115426,-0.16576 0.180019,-0.24145 0.06459,-0.07569 0.138322,-0.14471 0.207716,-0.196178 0.06939,-0.05147 0.134976,-0.08865 0.207715,-0.105634 0.166267,-0.0453 0.3461,0.135816 0.512366,0.135816 0.166262,-0.0453 0.249165,-0.316927 0.415431,-0.271631 0.33252,0.0453 0.539881,0.543262 0.872404,0.543262 0.249391,0 0.456911,-0.271511 0.581601,-0.49799 0.0416,-0.0906 -0.20771,-0.0905 -0.20771,-0.181088 0.12469,-0.634143 0.3738,4.9e-5 0.54006,-0.09054 0.0312,-0.01135 0.0498,-0.04221 0.0692,-0.07545 0.039,-0.06649 0.0718,-0.156097 0.11078,-0.211269 0.01,-0.01381 0.0155,-0.02226 0.0277,-0.03018 0.0122,-0.0079 0.026,-0.01507 0.0415,-0.01507 0.15587,-0.0453 0.35299,-0.07639 0.5816,-0.09054 0.17146,-0.01062 0.35263,-0.01106 0.54006,0 0.0278,0.0014 0.0552,0.01299 0.0831,0.01507 0.16162,0.01212 0.32908,0.03124 0.48467,0.06036 0.0905,0.01714 0.17835,0.03718 0.26311,0.06036 0.0829,0.0226 0.16075,0.04675 0.23541,0.07545 0.0506,0.01946 0.10656,0.03805 0.15233,0.06036 0.0188,0.0094 0.0375,0.02028 0.0554,0.03018 0.0671,0.0366 0.12775,0.07691 0.18002,0.120725 0.0623,0.06794 0.0848,0.179218 0.11078,0.286721 0.013,0.05375 0.0201,0.106344 0.0415,0.150906 0.0214,0.04457 0.0554,0.08299 0.0969,0.105634 0.24939,0.181189 0.5399,0.181039 0.83086,0.271631 0.37409,0.135888 0.48447,0.165978 0.85856,0.211269 0.077,0.02018 0.1454,0.03771 0.21464,0.05282 0.15239,0.08302 0.31151,0.03771 0.4362,0.083 0.20783,0 0.27684,-0.105658 0.48467,-0.06036 0.0597,0.03255 0.17009,0.146318 0.20771,0.181087 -0.40086,-1.038335 -0.40919,-0.120527 -0.73392,-0.890346 -0.16627,-0.181188 0.1108,-0.346963 0.0692,-0.573442 -0.1247,-0.452965 -0.55387,-1.010801 -0.637,-1.509056 -0.006,-0.03129 8.9e-4,-0.07541 0.0138,-0.135815 0.0392,-0.181223 0.16292,-0.484865 0.33235,-0.860165 0.11295,-0.2502 0.23976,-0.531165 0.38774,-0.829983 0.73985,-1.494091 1.80491,-3.411592 2.04945,-3.863195 0.74819,-0.679444 0.94158,0.197062 1.06628,-1.433602 0,-0.362368 -0.62313,-1.056318 -0.66469,-1.101614 -0.10392,-0.22649 0.0554,-0.296196 0.22156,-0.331994 0.0831,-0.01792 0.16444,-0.03327 0.22156,-0.04525 0.0571,-0.01202 0.0866,-0.02637 0.0554,-0.06036 -0.66504,-0.543551 -1.8,-1.568954 -2.17409,-2.429582 -0.0416,-0.11324 -0.045,-0.224505 -0.0415,-0.347084 0.002,-0.06129 0.004,-0.131807 0,-0.196178 -0.004,-0.06437 -0.007,-0.128234 -0.0277,-0.196178 0.003,-0.137563 -0.45697,-0.709258 -0.45697,-0.709258 v -0.01507 c -0.0136,4.54e-4 -0.028,-4.49e-4 -0.0415,0 -0.29096,-0.713417 0.49572,-2.141282 0.13848,-2.972845 -0.002,-0.0039 0.002,-0.01125 0,-0.01507 -0.0282,-0.05651 -0.0576,-0.09963 -0.0969,-0.150906 -0.0379,-0.05282 -0.0865,-0.10561 -0.13848,-0.150906 -0.33253,-0.271781 -0.74757,-0.407422 -1.12166,-0.452718 -0.0416,-0.02265 -0.0831,0.01507 -0.12463,0.06036 -0.003,0.0029 0.003,0.01227 0,0.01507 -0.013,0.01405 -0.0286,0.01903 -0.0415,0.03018 -0.008,0.0074 -0.0198,0.0098 -0.0277,0.01507 -0.0168,0.0085 -0.0386,0.02429 -0.0554,0.01507 -1.2054,-0.498261 1.4123,-2.897217 1.70326,-3.214294 0.0208,-0.02265 0.0571,-0.05094 0.0831,-0.09054 0.013,-0.0198 0.0193,-0.05352 0.0277,-0.07545 0.008,-0.02192 0.0138,-0.03771 0.0138,-0.06036 -0.0234,-0.467113 -0.11064,-0.927369 -0.2354,-1.37324 -0.0416,-0.148622 -0.0884,-0.290855 -0.13848,-0.437628 -0.19917,-0.583052 -0.46701,-1.156529 -0.74778,-1.720328 -0.002,-0.0039 0.002,-0.01125 0,-0.01507 -0.56596,-1.135238 -1.20455,-2.240324 -1.57864,-3.395381 -0.24939,-0.181184 1.3e-4,-0.678874 -0.24926,-1.041247 -0.74817,-1.177699 -0.29017,-0.180797 -1.45401,-0.724349 -0.41565,-0.181188 -0.12429,-0.769741 -0.74777,-0.543261 -0.1247,0.0453 -0.12456,0.271577 -0.24926,0.362174 -1.739849,1.112875 -6.791636,1.13859 -9.444128,0.890346 -0.08295,0.08227 -0.209316,0.342525 -0.304651,0.467808 -0.235407,0.30936 -0.415431,0.256565 -0.623146,0.452714 -0.04153,0.07545 -0.109912,0.137698 -0.249258,0.181087 -0.139346,0.04336 -0.356586,0.07546 -0.429277,0.120725 0.03462,-0.286717 -0.15757,-0.259129 -0.09525,-0.364758 0.06231,-0.105634 0.647257,-0.310587 0.830862,-0.452718 0.179275,-0.138781 0.470872,-0.410518 0.470872,-0.410518 l -0.185213,-0.122589 c 0,0 -0.300803,0.227079 -0.42512,0.324291 -0.997443,0.558816 -1.24647,0.905813 -2.25787,0.603784 -0.83131,-0.362368 -0.235279,-0.497696 -0.969339,-1.418517 -0.08313,-0.135888 -0.08318,-0.392385 0.06924,-0.51308 0.152389,-0.105635 0.955439,0.37724 1.149358,0.422536 -0.05545,-0.324484 -0.424047,-0.653246 -1.412467,-0.709258 -0.191551,-0.01086 -0.290799,-0.25654 -0.290799,-0.25654 z m -10.828903,6.217319 c -0.0086,-0.01202 -0.04461,0.01145 -0.152323,0.07545 -0.215418,0.128046 -0.614047,0.362933 -0.692385,0.437628 -0.07834,0.07469 -0.126714,0.269796 -0.332346,0.301812 -0.205628,0.03202 -0.313457,-0.03018 -0.401581,-0.03018 -0.08813,0 -0.138477,-0.01507 -0.138477,-0.01507 0.0035,0.0039 0,0.01507 0,0.01507 l -0.09693,0.07545 0.04153,0.07545 0.01383,0.03018 v 0.07545 l 0.01383,0.105634 c 0,0 -0.01206,4.83e-4 -0.01383,0 v 0.01507 c 0,0 0.109797,0.132155 0.207716,0.196178 0.09791,0.06402 0.197921,0.190996 0.207715,0.105634 0.0098,-0.08537 0.02841,-0.211269 0.09693,-0.211269 0.06854,0 0.158058,0.01879 0.138473,-0.04525 -0.01959,-0.06403 -0.08141,-0.05045 -0.110781,-0.135816 -0.02938,-0.08537 -0.03674,-0.131397 0.04153,-0.120725 0.07833,0.01067 -0.0027,0.150907 0.124627,0.150907 0.127294,0 0.230368,0.03018 0.318496,0.03018 0.08812,0 0.238776,0.03535 0.180019,0.120725 -0.05875,0.08537 -0.02938,0.04163 0,0.105634 0.0044,0.0096 0.01192,0.01202 0.01383,0.01507 0.0035,-0.02134 0.01622,-0.0692 0.05539,-0.09054 0.07834,-0.04269 0.0514,0.03936 0.04153,-0.120725 -0.0098,-0.160057 -8.86e-4,-0.219039 0.09693,-0.347084 0.09792,-0.128051 0.110785,-0.13992 0.110785,-0.331993 0,-0.192074 -0.13877,-0.192518 0.0277,-0.256541 0.166461,-0.06403 0.217506,-0.06112 0.207715,-0.135815 -0.0049,-0.03733 0.0086,-0.07854 0,-0.09054 z" />
  </g>
</svg>
