<?xml version="1.0" encoding="UTF-8" standalone="no"?>
<!-- Created with Inkscape (http://www.inkscape.org/) -->

<svg
   width="24.188801mm"
   height="14.974655mm"
   viewBox="0 0 24.188801 14.974655"
   version="1.1"
   id="svg5021"
   xmlns="http://www.w3.org/2000/svg"
   xmlns:svg="http://www.w3.org/2000/svg">
  <defs
     id="defs5018">
    <clipPath
       clipPathUnits="userSpaceOnUse"
       id="clipPath5084">
      <path
         style="fill:#c0c0c0;stroke:#ffffff;stroke-width:27.2069;stroke-miterlimit:4;stroke-dasharray:none"
         id="path5086"
         d="m 1292.5455,135.84808 c -11.545,35.25004 92.3252,63.4047 69.2347,84.55498 -69.2718,70.50091 -167.2788,77.48265 -236.5506,126.83246 -11.5454,7.0501 0.01,42.27379 -11.5392,49.32306 -46.1813,28.20036 -109.6028,-14.11007 -144.23829,21.13833 -28.86354,28.20078 -17.29204,84.53892 -46.15558,112.7397 -11.54578,14.10059 -23.06915,-35.23481 -40.3869,-28.18472 -51.95438,14.10059 -59.6,98.63127 -94.23551,126.83205 -17.31776,21.14987 -51.91653,-14.09277 -69.23428,7.04227 -17.31776,14.1006 0.009,56.35873 -17.30821,77.50859 -23.0912,35.24923 -86.53366,-28.18513 -103.85178,-28.18513 -144.3155,28.20078 -167.29095,162.00222 -213.47225,274.80204 -11.54541,28.19913 -11.52631,-70.45027 -34.61677,-91.60013 -16.00705,-26.06599 -36.80239,-70.54951 -57.69548,-51.6724 -17.69623,15.98831 17.46915,35.19281 1.92179,46.97495 -4.93051,3.73506 -10.37067,6.43362 -13.46243,9.3949 2.20473,7.47096 4.48735,15.35166 19.23183,28.18513 14.74153,12.83265 36.65688,24.26723 34.61714,51.67157 -0.7937,10.72298 0.0283,26.39584 0,42.27708 29.65981,51.18889 66.92556,101.51229 107.69793,133.87849 11.54505,7.0496 51.92204,16.4186 57.69511,58.7183 17.31739,98.7005 -57.68886,63.3738 -69.23464,140.9244 72.78646,70.6681 75.71433,112.1789 138.46892,300.6383 25.48664,2.2402 44.92277,7.5084 61.54163,46.9749 4.13643,9.8195 -16.99072,24.4072 -7.69303,32.8822 35.90728,32.7281 87.12012,-18.084 130.77554,35.2311 40.40822,49.3506 46.13426,126.8094 86.54285,169.1095 80.81718,70.4997 284.60811,161.9858 325.01671,302.9868 h 5.7675 c 92.3615,56.3999 161.4819,204.3707 282.7069,147.9708 23.0912,-7.0501 17.2954,-63.4162 40.3862,-63.4162 40.4082,0 80.7514,63.4236 121.16,49.3234 l 46.1563,-183.2015 c 23.0912,-21.1503 63.4586,28.2074 75.0041,7.0423 11.5457,-14.1006 0.01,-218.4248 5.7675,-232.5246 17.3174,-21.1498 51.9129,-7.0422 75.0033,7.0423 11.5458,7.0501 -0.01,42.273 11.5396,49.3231 28.8635,0 51.9099,-42.2775 80.7734,-42.2775 167.4056,0 299.9313,155.0048 455.7919,176.1555 23.0912,0 51.9128,14.1076 75.004,7.0427 34.6355,-21.1499 46.1402,-77.5004 75.0033,-91.601 40.4086,-14.0998 98.067,77.5049 126.9298,84.5546 17.3174,0 40.3774,-42.2853 57.6955,-28.1847 28.8628,28.2007 40.3862,56.3538 40.3862,84.5545 86.5891,-415.9513 276.843,-63.2717 450.0231,-331.1718 11.5447,-21.1499 -5.7675,-56.3584 5.7676,-77.5082 17.3174,-28.2008 57.6859,-14.0767 75.0033,-42.2775 0,0 46.1563,-218.4289 46.1563,-225.479 51.9537,-112.7998 190.3418,-204.3098 288.4763,-260.7097 -23.0912,-35.2504 -5.7554,-100.9769 -28.8477,-136.2269 -23.0912,-28.2008 -69.2211,-7.0349 -92.3123,-28.1848 -5.7738,-7.05 -57.6921,-176.15177 -63.4645,-183.20104 -28.8635,-28.20077 -80.7551,-7.03485 -115.3906,-21.13874 -28.8624,-7.05009 -92.3005,-28.1736 -115.3902,-49.32346 -11.5465,-7.0501 -11.5333,-35.23481 -23.0783,-28.18513 -98.1357,49.34981 92.4034,63.4047 -75.0041,84.55498 -11.545,0 -28.8407,-7.04268 -40.3865,-21.13875 -17.3178,-21.14986 -11.53,-56.35873 -28.8474,-77.50859 -23.0912,-21.14987 -103.8639,-28.1736 -80.7734,-49.32347 75.0441,-84.60151 121.1978,21.23017 51.9257,-147.9708 0,-7.05009 -11.5363,-7.05009 -17.309,0 -5.7734,14.1006 0.01,42.27379 -11.5388,49.32347 -23.0908,14.10018 -51.9128,0 -75.004,0 -23.0905,0 -51.9129,14.10759 -75.0033,7.04268 -51.954,-21.14987 -149.9611,-126.8403 -236.5502,-112.7397 -34.6374,7.05009 92.3151,162.05492 86.5428,176.15552 -17.3181,42.30014 -74.9882,28.17071 -103.8518,56.36985 -17.3177,21.14986 -11.5259,70.45479 -34.6168,84.55456 -86.5891,42.30097 -121.1508,-140.90835 -138.4689,-169.10913 l -132.6991,-98.64734 c -11.5444,-91.65037 207.7869,-126.78305 51.9257,-218.43218 -28.8636,-21.15069 -155.7768,63.41541 -155.7768,63.41541 -17.3181,-21.14987 0.01,-56.35791 -17.3086,-77.50777 -5.7738,-14.09977 -23.0691,0.007 -40.3865,7.04268 -5.7738,0 -11.5333,21.14245 -23.0784,14.09236 -11.5454,-21.14987 -5.755,-56.35873 -28.8473,-77.5086 -75.0438,-56.40114 -149.9578,7.09498 -242.32,-84.55539 -63.4991,-56.40073 23.1346,-112.73105 -80.7731,-126.832055 -161.6343,-35.249223 41.9133,175.553045 -137.0259,144.447405 -11.5462,28.19995 -12.9712,52.84768 -30.2904,52.84768 -9.9451,2.80439 -21.3417,-2.54907 -32.6942,-11.74384 -21.3921,-4.04392 -44.1056,-11.1496 -36.9443,-44.44481 7.161,-33.2948 14.1301,-61.48158 -7.2884,-47.15655 -7.1397,4.7724 -13.4731,13.2774 -19.2319,11.74343 -5.7613,-1.53192 -7.7257,-10.72586 -3.1748,-37.1077 4.555,-26.38184 3.9333,-31.8123 -42.9826,-45.09794 -4.8441,-1.37542 -8.7244,-1.69251 -13.4624,-2.34317 -3.2446,-3.90802 -5.9274,-10.344111 -11.0556,-10.188448 -5.1274,0.164721 -8.6161,9.000808 -21.0228,9.845008 -12.4067,0.84008 -20.9732,-25.092067 -36.6521,-31.533924 -15.6789,-6.441033 -25.1871,25.932144 -35.1088,60.081034 z" />
    </clipPath>
  </defs>
  <g
     id="layer1"
     transform="translate(-49.570874,-95.707608)">
    <g
       id="g4668"
       transform="matrix(0.00720044,0,0,0.00642498,47.749845,95.277455)"
       style="stroke:#000000;stroke-width:1.01139;stroke-dasharray:none;stroke-opacity:1"
       clip-path="url(#clipPath5084)">
      <rect
         y="1090.394"
         style="fill:#d72027;stroke:#000000;stroke-width:1.01139;stroke-dasharray:none;stroke-opacity:1"
         width="4000"
         height="1407.606"
         id="rect4654"
         x="0" />
      <rect
         x="0"
         style="fill:#fffffc;stroke:#000000;stroke-width:1.01139;stroke-dasharray:none;stroke-opacity:1"
         width="4000"
         height="1249"
         id="rect4656"
         y="0" />
      <polyline
         style="fill:#13477d;stroke:#000000;stroke-width:1.01139;stroke-dasharray:none;stroke-opacity:1"
         points="0.001,0 2000,1249 0,2498 "
         id="polyline4658" />
    </g>
    <path
       style="display:inline;fill:none;stroke:#000000;stroke-width:0.185052;stroke-miterlimit:4;stroke-dasharray:none;stroke-opacity:1"
       id="cz-copy"
       d="m 56.962094,96.189936 c -0.08313,0.22648 0.664782,0.407374 0.49852,0.543262 -0.498786,0.452969 -1.204481,0.497826 -1.703267,0.814897 -0.08313,0.0453 4.5e-5,0.271607 -0.08309,0.316898 -0.332524,0.181189 -0.789187,-0.09065 -1.038578,0.135816 -0.207831,0.181188 -0.124511,0.54316 -0.332342,0.724349 -0.08313,0.0906 -0.166107,-0.226384 -0.290805,-0.181088 -0.374092,0.0906 -0.429143,0.633704 -0.678534,0.814893 -0.124698,0.135888 -0.373822,-0.09054 -0.49852,0.04525 -0.124693,0.0906 6.6e-5,0.362102 -0.124627,0.49799 -0.166266,0.226477 -0.62308,-0.181088 -0.747777,-0.181088 -1.039136,0.181189 -1.204569,1.040865 -1.537093,1.765595 -0.08313,0.18118 -0.083,-0.45264 -0.249258,-0.58853 -0.115257,-0.16747 -0.264992,-0.45328 -0.415431,-0.33199 -0.127423,0.10272 0.125784,0.22611 0.01383,0.30181 -0.0355,0.024 -0.07467,0.0413 -0.09693,0.0604 0.01587,0.048 0.03231,0.0986 0.138477,0.18109 0.106144,0.0825 0.263945,0.15592 0.249257,0.33199 -0.0057,0.0689 2.04e-4,0.16959 0,0.27163 0.213566,0.32889 0.481895,0.65221 0.775474,0.86016 0.08313,0.0453 0.373862,0.10549 0.415431,0.37727 0.124693,0.63414 -0.415387,0.40717 -0.49852,0.90543 0.524093,0.45404 0.545177,0.72075 0.997036,1.93159 0.183516,0.0144 0.323464,0.0482 0.443127,0.30182 0.02978,0.0631 -0.12234,0.15681 -0.05539,0.21127 0.258548,0.21027 0.627304,-0.11619 0.941643,0.22635 0.290955,0.31708 0.332187,0.81475 0.623146,1.08653 0.581919,0.45296 2.049304,1.04075 2.340264,1.94668 h 0.04153 c 0.665044,0.36237 1.162739,1.31308 2.035613,0.95071 0.166267,-0.0453 0.124534,-0.40745 0.2908,-0.40745 0.290955,0 0.581445,0.4075 0.872404,0.31691 l 0.332347,-1.17707 c 0.166266,-0.13589 0.456929,0.18123 0.540062,0.0453 0.08313,-0.0906 4.4e-5,-1.40337 0.04153,-1.49397 0.124693,-0.13588 0.373796,-0.0452 0.540058,0.0452 0.08313,0.0453 -4.5e-5,0.27161 0.08309,0.3169 0.20783,0 0.373773,-0.27163 0.581604,-0.27163 1.205393,0 2.159636,0.9959 3.281901,1.1318 0.166267,0 0.373796,0.0906 0.540062,0.0452 0.249391,-0.13589 0.332232,-0.49794 0.540058,-0.58854 0.290959,-0.0906 0.706124,0.49797 0.913951,0.54326 0.124693,0 0.290733,-0.27168 0.415431,-0.18108 0.207826,0.18119 0.2908,0.36207 0.2908,0.54326 0.623479,-2.67248 1.993392,-0.40652 3.240363,-2.12777 0.08313,-0.13589 -0.04153,-0.3621 0.04153,-0.49799 0.124693,-0.18119 0.415365,-0.0904 0.540058,-0.27163 0,0 0.332346,-1.4034 0.332346,-1.4487 0.374089,-0.72474 1.370543,-1.31268 2.077155,-1.67505 -0.166266,-0.22649 -0.04144,-0.64878 -0.207715,-0.87526 -0.166266,-0.18119 -0.498422,-0.0452 -0.664689,-0.18108 -0.04157,-0.0453 -0.415409,-1.13178 -0.456973,-1.17707 -0.207831,-0.18119 -0.581471,-0.0452 -0.830862,-0.13581 -0.207822,-0.0453 -0.664604,-0.18102 -0.830862,-0.3169 -0.08314,-0.0453 -0.08304,-0.22639 -0.166173,-0.18109 -0.706621,0.31707 0.665344,0.40737 -0.540062,0.54326 -0.08313,0 -0.207667,-0.0452 -0.2908,-0.13582 -0.124698,-0.13588 -0.08302,-0.3621 -0.207716,-0.49799 -0.166266,-0.13588 -0.747866,-0.18101 -0.581604,-0.3169 0.54035,-0.543559 0.872679,0.13641 0.373889,-0.950706 0,-0.0453 -0.08307,-0.0453 -0.124631,0 -0.04157,0.0906 4.4e-5,0.271607 -0.08309,0.316903 -0.166266,0.09059 -0.373796,0 -0.540062,0 -0.166262,0 -0.373796,0.09064 -0.540058,0.04525 -0.374092,-0.135888 -1.079787,-0.814946 -1.703266,-0.724349 -0.249404,0.0453 0.664711,1.041198 0.623147,1.131795 -0.124698,0.271777 -0.539947,0.180997 -0.747778,0.362177 -0.124697,0.13588 -0.08299,0.45267 -0.249258,0.54326 -0.623478,0.27178 -0.872337,-0.905336 -0.997035,-1.086524 L 63.899739,99.08722 c -0.08312,-0.588852 1.496158,-0.814578 0.373889,-1.403421 -0.207831,-0.135893 -1.121662,0.407442 -1.121662,0.407442 -0.124698,-0.135888 6.6e-5,-0.362098 -0.124631,-0.497986 -0.04157,-0.09059 -0.166107,4.9e-5 -0.2908,0.04525 -0.04157,0 -0.08304,0.13584 -0.166173,0.09054 -0.08313,-0.135888 -0.04144,-0.362102 -0.207716,-0.49799 -0.540346,-0.362377 -1.079761,0.04559 -1.744808,-0.543267 -0.457222,-0.362372 0.166576,-0.724296 -0.581605,-0.814892 -1.163838,-0.226475 0.301796,1.127922 -0.986646,0.928069 -0.08314,0.181184 -0.0934,0.339546 -0.218104,0.339546 -0.07161,0.01801 -0.153671,-0.01637 -0.235412,-0.07545 -0.154034,-0.02598 -0.317579,-0.07164 -0.266016,-0.285557 0.05156,-0.21392 0.101744,-0.395017 -0.05248,-0.302981 -0.05141,0.03066 -0.09701,0.08531 -0.138477,0.07545 -0.04148,-0.0099 -0.05563,-0.06891 -0.02287,-0.238417 0.0328,-0.169503 0.02832,-0.204392 -0.309495,-0.289754 -0.03488,-0.0088 -0.06282,-0.01087 -0.09693,-0.01507 -0.02336,-0.02511 -0.04268,-0.06646 -0.07961,-0.06546 -0.03692,9.66e-4 -0.06204,0.05783 -0.151374,0.06326 -0.08933,0.0054 -0.151016,-0.161216 -0.26391,-0.202605 -0.112895,-0.04138 -0.181358,0.166615 -0.252799,0.38602 z" />
  </g>
</svg>
