<?xml version="1.0" encoding="UTF-8" standalone="no"?>
<!-- Created with Inkscape (http://www.inkscape.org/) -->

<svg
   width="10.398327mm"
   height="9.8486557mm"
   viewBox="0 0 10.398327 9.8486557"
   version="1.1"
   id="svg5219"
   xmlns="http://www.w3.org/2000/svg"
   xmlns:svg="http://www.w3.org/2000/svg">
  <defs
     id="defs5216">
    <clipPath
       clipPathUnits="userSpaceOnUse"
       id="clipPath15921">
      <path
         style="fill:#c0c0c0;stroke:#000000;stroke-width:8.20129;stroke-miterlimit:4;stroke-dasharray:none;stroke-opacity:1"
         id="path15923"
         d="m 517.16245,47.549165 c -2.62051,-0.283638 1.30817,3.415205 -6.23131,4.742576 -10.05134,1.770012 -6.88047,3.898591 -2.33595,7.904262 4.54392,4.004839 -14.70108,-1.274801 -18.69421,1.053895 -3.99297,2.328049 -18.96432,1.827941 -21.03046,2.107791 -2.06673,0.278095 -5.49164,1.429924 -9.3471,-0.525701 -3.85546,-1.955716 -20.34646,-8.41019 -18.69405,-2.634784 1.65285,5.775036 0.56553,10.576464 -9.3471,6.850366 -9.91398,-3.726283 -17.45048,4.955166 -21.03046,7.37736 -3.58028,2.421087 -8.4735,1.424843 -10.1262,2.634693 -1.65285,1.210774 0.14882,5.897638 -2.33596,5.796471 -2.47808,-0.08315 -12.52065,-5.062246 -31.93546,0.526624 -19.41481,5.597278 -29.36689,-4.334488 -31.15666,1.579966 1.78992,7.219003 -3.61109,8.495097 -8.568,7.377175 -4.95736,-1.118014 -9.89418,8.644031 -11.68381,11.065951 -5.52869,11.33341 3.31627,25.31224 -11.68365,26.34757 -14.92848,1.03024 -12.36661,-15.47518 -31.15666,-21.0781 -3.30481,-2.98069 -9.87781,-2.06021 -21.0309,6.32347 -11.15339,8.38386 -22.89107,6.09138 -33.49336,14.75463 -10.60244,8.66306 -6.62018,-1.5176 -20.25196,15.80852 -13.63147,17.32631 -8.29744,17.16001 -6.2313,24.23969 2.06673,7.07958 1.15191,13.25883 -3.11565,17.9164 -4.2686,4.65703 -6.22758,-0.52662 -8.568,-0.52662 -2.34102,0 -5.81028,4.74258 -10.90501,4.74258 -5.09472,0 -6.04229,1.98001 -9.3468,4.21558 -0.57893,0.39081 -0.99713,0.40097 -1.55805,0.5257 -0.22472,-0.0647 -0.55065,0.0647 -0.77835,0 -1.27097,-0.34092 -2.68019,-0.68646 -3.8946,-1.0539 1.43318,15.48276 3.79563,26.51646 5.4525,48.47928 -0.2917,0.59315 -0.82747,1.11802 -1.55805,1.58006 -4.38201,2.77938 -15.38449,3.54391 -17.13601,6.32337 -0.2917,0.4638 -0.2917,0.98987 0,1.58006 0.2917,1.38438 0.69055,2.43476 1.55805,3.68859 5.20322,7.52306 19.72229,13.55522 24.92551,21.07809 0.86765,1.25457 1.2665,2.30477 1.55804,3.68859 0.58638,1.18712 0.19943,2.50313 -0.77835,3.68868 -0.98671,1.18546 -2.28863,1.97651 -3.8946,3.16169 -3.21328,2.37073 -7.0104,5.00478 -7.0104,7.37736 0,12.65376 60.75051,71.13318 70.10252,80.62332 1.75509,1.38438 3.06222,2.57778 4.6734,3.16169 1.61044,0.58298 3.19483,0.5645 4.6737,0.5257 8.87265,-0.22082 15.77024,-10.01215 21.03076,-10.01215 9.35201,-1.58163 21.02688,-0.002 28.04086,3.16178 0.58637,0.39635 0.64292,0.86015 0.77835,1.57997 1.85481,3.63186 -2.53151,9.48515 1.55805,9.48515 4.0915,0.39635 37.28497,-14.72516 56.08201,-13.17383 21.65062,1.78692 17.65258,-7.48213 38.16706,-12.11985 34.65346,-7.8346 31.07674,9.31654 49.07177,-1.57996 8.75195,-5.30108 6.11179,-10.07285 14.02035,-11.06604 15.81697,-1.98464 21.02957,-0.39266 23.36761,-1.57997 6.43013,-4.74507 -0.98225,-4.58477 1.55805,-8.95816 2.5394,-4.37366 15.11213,-12.94248 15.5784,-16.86232 0.93462,-7.84015 -0.79323,-15.01499 22.58836,-20.55101 13.19527,-8.55607 14.07557,0.13489 24.14656,-3.68868 11.94856,-4.53008 28.71206,-11.13681 43.61926,-7.37736 13.98806,3.52746 27.52072,4.39759 38.94586,1.58006 13.75664,-3.38869 26.09185,-2.63396 29.59876,-4.21558 7.01308,-3.16363 2.33343,-10.01039 9.3471,-13.17384 4.67593,-1.58172 9.34472,9.48682 14.02051,6.32347 28.05603,-12.65358 -41.75657,-41.13463 45.17701,-46.89867 h 1.5582 c 1.05517,-13.0832 -6.53342,-30.20514 -11.68381,-43.7368 -7.62802,-20.04129 9.2718,-21.7033 8.56801,-33.72484 -0.0744,-0.0462 0.17412,-0.92741 0,-1.05389 -0.25003,0.009 -0.5328,-0.009 -0.77836,0 -1.89975,-1.32709 -6.0344,-4.41237 -8.568,-8.95816 -6.51958,-11.69734 -11.77027,-10.96737 -14.7996,-14.22773 -3.02948,-3.26026 -8.79214,-9.68138 -11.68366,-21.60499 -2.89167,-11.923514 -11.17229,-7.34604 -15.5784,-7.90426 -4.40611,-0.566354 -6.49457,0.31043 -13.24156,-0.525702 -6.74683,-0.83798 -10.71152,-4.094181 -16.3572,-3.161687 -5.64538,0.930832 -10.61717,-1.951004 -17.91511,-3.161686 -7.29793,-1.210774 -12.81621,-5.234646 -20.25195,-7.377175 -7.43545,-2.14253 -10.0311,-9.016641 -11.68365,-11.065948 -1.653,-2.049678 -7.28067,-0.893414 -9.34681,-3.688681 -2.06673,-2.794619 -9.24441,-6.719819 -15.5784,-10.539046 -6.33399,-3.818673 -11.12899,-7.444066 -14.02066,-4.742576 -2.89137,2.701398 -5.38463,-1.820087 -17.9151,-6.850366 -3.13247,-1.257893 -4.5789,-1.485543 -5.4525,-1.579966 z" />
    </clipPath>
  </defs>
  <g
     id="layer1"
     transform="translate(-51.432187,-83.16889)">
    <g
       id="macedonia-flag"
       transform="matrix(0.01777815,0,0,0.02863759,49.144885,81.865131)"
       clip-path="url(#clipPath15921)">
      <path
         d="M 0,0 H 800 V 400 H 0 Z"
         fill="#d20000"
         id="path15880" />
      <path
         transform="translate(0,1.4e-5)"
         d="M 0,0 H 120 L 680,400 H 800 Z"
         fill="#ffe600"
         id="path15882" />
      <path
         transform="translate(0,1.4e-5)"
         d="m 360,0 h 80 l -80,400 h 80 z"
         fill="#ffe600"
         id="path15884" />
      <path
         transform="translate(0,1.4e-5)"
         d="M 680,0 H 800 L 0,400 h 120 z"
         fill="#ffe600"
         id="path15886" />
      <path
         transform="translate(0,1.4e-5)"
         d="m 0,160 v 80 l 800,-80 v 80 z"
         fill="#ffe600"
         id="path15888" />
      <path
         transform="matrix(1.1905,0,0,1.1905,-76.191,-38.095)"
         d="m 460,200 a 60,60 0 1 0 -120,0 60,60 0 1 0 120,0"
         fill="#d20000"
         id="path15890" />
      <path
         transform="matrix(1.1429,0,0,1.1429,-57.143,-28.571)"
         d="m 450,200 a 50,50 0 1 0 -100,0 50,50 0 1 0 100,0"
         fill="#ffe600"
         id="path15892" />
    </g>
    <path
       style="fill:none;stroke:#000000;stroke-width:0.185052;stroke-miterlimit:4;stroke-dasharray:none;stroke-opacity:1"
       id="macedonia-copy"
       d="m 58.244437,83.26648 c -0.04659,-0.0081 0.02327,0.0978 -0.110781,0.135815 -0.178694,0.05069 -0.122322,0.111647 -0.04153,0.226359 0.08078,0.114689 -0.261357,-0.03651 -0.332346,0.03018 -0.07099,0.06667 -0.337151,0.05235 -0.373885,0.06036 -0.03674,0.008 -0.09763,0.04095 -0.166173,-0.01507 -0.06854,-0.05601 -0.361722,-0.240846 -0.332346,-0.07545 0.02938,0.165384 0.01006,0.302885 -0.166174,0.196178 -0.176252,-0.106711 -0.310239,0.141905 -0.373884,0.211269 -0.06365,0.06933 -0.150643,0.04081 -0.180024,0.07545 -0.02939,0.03467 0.0027,0.168894 -0.04153,0.165996 -0.04406,-0.0024 -0.222594,-0.144971 -0.567754,0.01507 -0.345159,0.160293 -0.522089,-0.124129 -0.553908,0.04525 0.03182,0.206734 -0.0642,0.243279 -0.152323,0.211263 -0.08813,-0.03202 -0.175901,0.247544 -0.207715,0.316903 -0.09829,0.324561 0.05896,0.72488 -0.207716,0.75453 -0.265399,0.02951 -0.219855,-0.443171 -0.553908,-0.603624 -0.05875,-0.08536 -0.175609,-0.059 -0.373888,0.181087 -0.198289,0.240093 -0.406962,0.174443 -0.595451,0.422537 -0.188493,0.24809 -0.117694,-0.04346 -0.360042,0.452718 -0.242344,0.496184 -0.147514,0.491423 -0.110781,0.694168 0.03674,0.20274 0.02048,0.379699 -0.05539,0.51308 -0.07589,0.133368 -0.110714,-0.01507 -0.152323,-0.01507 -0.04162,0 -0.103294,0.135815 -0.193869,0.135815 -0.09058,0 -0.107421,0.0567 -0.166169,0.120725 -0.01028,0.0112 -0.01773,0.01149 -0.0277,0.01507 -0.004,-0.0019 -0.0098,0.0019 -0.01383,0 -0.0226,-0.0098 -0.04765,-0.01965 -0.06924,-0.03018 0.02548,0.443389 0.06748,0.759369 0.09693,1.388331 -0.0052,0.017 -0.01471,0.03202 -0.0277,0.04525 -0.0779,0.0796 -0.273506,0.101491 -0.304646,0.181087 -0.0052,0.01328 -0.0052,0.02835 0,0.04525 0.0052,0.03965 0.01228,0.06973 0.0277,0.105634 0.0925,0.215441 0.350625,0.388188 0.443128,0.603624 0.01542,0.03593 0.02251,0.066 0.0277,0.105634 0.01042,0.034 0.0035,0.07168 -0.01383,0.105635 -0.01755,0.03395 -0.04069,0.0566 -0.06924,0.09054 -0.05713,0.06789 -0.124631,0.143325 -0.124631,0.211269 0,0.362372 1.080031,2.037081 1.246293,2.308857 0.0312,0.03965 0.05444,0.07382 0.08308,0.09054 0.02863,0.01671 0.0568,0.01618 0.08309,0.01507 0.157739,-0.0063 0.280367,-0.286721 0.373889,-0.286721 0.166262,-0.0453 0.373818,-5.3e-5 0.498515,0.09054 0.01042,0.01135 0.01143,0.02463 0.01383,0.04525 0.03298,0.104007 -0.045,0.271631 0.0277,0.271631 0.07274,0.01135 0.662858,-0.421692 0.997035,-0.377265 0.384907,0.05117 0.31383,-0.214272 0.67854,-0.347084 0.616072,-0.224365 0.552485,0.266802 0.872404,-0.04525 0.155594,-0.151809 0.108657,-0.28846 0.249257,-0.316902 0.281196,-0.05684 0.373867,-0.01125 0.415431,-0.04525 0.114318,-0.135888 -0.01746,-0.131296 0.0277,-0.25654 0.04515,-0.12525 0.268666,-0.37064 0.276954,-0.482895 0.01662,-0.224524 -0.01409,-0.429993 0.401581,-0.588533 0.234587,-0.245023 0.250237,0.0039 0.429281,-0.105635 0.212423,-0.12973 0.510447,-0.31893 0.77547,-0.211268 0.248681,0.101018 0.489265,0.125935 0.692385,0.04525 0.244568,-0.09704 0.463865,-0.07543 0.526211,-0.120725 0.12468,-0.0906 0.04149,-0.286673 0.166174,-0.377265 0.08313,-0.0453 0.166133,0.271679 0.249257,0.181087 0.498786,-0.362368 -0.742352,-1.177994 0.803166,-1.343064 h 0.0277 c 0.01875,-0.374672 -0.116153,-0.865003 -0.207716,-1.252515 -0.135614,-0.573936 0.164835,-0.62153 0.152323,-0.965799 -0.0013,-0.0014 0.0031,-0.02656 0,-0.03018 -0.0044,3.72e-4 -0.0095,-3.81e-4 -0.01383,0 -0.03377,-0.038 -0.107279,-0.12636 -0.152323,-0.25654 -0.115904,-0.334983 -0.209253,-0.314078 -0.263108,-0.407446 -0.05386,-0.09337 -0.156307,-0.277252 -0.207715,-0.618715 -0.05141,-0.341463 -0.198621,-0.210375 -0.276954,-0.226359 -0.07833,-0.01623 -0.115462,0.0089 -0.235412,-0.01507 -0.119947,-0.024 -0.190431,-0.117248 -0.2908,-0.09054 -0.100365,0.02666 -0.188755,-0.05587 -0.318496,-0.09054 -0.129746,-0.03467 -0.227851,-0.149906 -0.360043,-0.211264 -0.132188,-0.06136 -0.178335,-0.258215 -0.207716,-0.316902 -0.02939,-0.0587 -0.129435,-0.02559 -0.166169,-0.105634 -0.03674,-0.08003 -0.164347,-0.192441 -0.276954,-0.301813 -0.112606,-0.109357 -0.197854,-0.21318 -0.249262,-0.135815 -0.0514,0.07736 -0.09573,-0.05212 -0.318496,-0.196178 -0.05569,-0.03602 -0.0814,-0.04254 -0.09693,-0.04525 z" />
  </g>
</svg>
