<?xml version="1.0" encoding="UTF-8" standalone="no"?>
<!-- Created with Inkscape (http://www.inkscape.org/) -->

<svg
   width="15.915127mm"
   height="15.792145mm"
   viewBox="0 0 15.915127 15.792145"
   version="1.1"
   id="svg5219"
   xmlns:xlink="http://www.w3.org/1999/xlink"
   xmlns="http://www.w3.org/2000/svg"
   xmlns:svg="http://www.w3.org/2000/svg">
  <defs
     id="defs5216">
    <clipPath
       clipPathUnits="userSpaceOnUse"
       id="clipPath14701">
      <path
         style="fill:#c0c0c0;stroke:#000000;stroke-width:1.36885;stroke-miterlimit:4;stroke-dasharray:none;stroke-opacity:1"
         id="path14703"
         d="m 63.940134,8.0487248 c -0.419293,0.4708977 -1.118966,1.0366983 -1.316881,1.5628937 0.05577,0.5858595 -0.807574,1.0735815 -1.097411,1.4587105 0.109871,0.208385 0.24656,0.651332 -0.32911,0.93774 -0.576132,0.286408 -2.271313,-0.440792 -2.853273,-0.625172 -0.582003,-0.184033 -1.207136,0.625172 -1.207136,0.625172 0,0 -2.284732,-0.814704 -2.633782,-1.146125 -0.349135,-0.33142 -0.515409,0.08531 -1.097412,0.41677 -0.582002,0.33142 -0.935707,-0.103946 -1.207135,-0.103946 -0.271512,0 -1.316902,0.673546 -1.316902,1.041941 0,0.368359 -0.399981,0.753689 -0.438939,0.93774 -0.039,0.18438 0.381508,0.630379 0.109661,1.146125 -0.271511,0.515727 -1.316901,1.35449 -1.316901,1.35449 -1.006537,0.340738 -0.531387,0.807379 -1.097412,1.667095 l 0.109662,1.354509 c -0.966824,0.424808 -0.578857,1.442599 -0.877963,2.188048 -3.122184,0.329429 -3.919044,-0.498884 -5.925974,-2.500634 -0.465589,-0.405223 -1.761376,-0.5388 -2.304567,-0.833538 -0.542919,-0.294738 -0.251488,-0.95557 -0.32911,-1.250308 -0.07758,-0.294738 -1.1873,-1.439876 -1.536351,-1.771278 -1.207135,-0.263079 -0.468378,-0.540116 -1.536392,-1.771278 -0.659583,-0.294756 -0.999869,0.08531 -1.426605,0.416769 -0.426862,0.331749 -0.651972,0.172634 -0.768197,-0.416769 -0.116161,-0.589732 -0.890102,0.275721 -1.316901,0.312403 -1.436167,-0.34682 -1.600156,0.663407 -2.633741,1.250308 -0.920192,1.374421 -0.178016,1.863952 0.329089,3.229989 l -0.768175,1.146124 c 0.80749,0.535604 -0.42596,0.876359 -0.65843,1.354509 l 0.877921,1.771278 0.768175,0.520935 -0.109662,1.250307 c -1.667294,1.047404 -0.750205,1.25345 -0.32911,3.125788 -0.700994,1.114849 0.775577,1.138086 1.207136,1.771278 -0.346681,0.692673 -1.188055,1.008931 -1.755841,1.041941 0.387274,2.141372 2.194046,3.490017 3.511703,4.376095 l 0.548705,-0.833538 c 0.712003,0.939128 0.754882,-0.501698 1.097411,-0.729356 l 1.316902,1.562894 c 0.172355,-0.218724 0.793609,-0.342783 0.768155,-0.103946 0.296798,1.657687 1.293145,1.394243 2.414291,2.083865 1.0677,0.756246 0.42703,1.845282 0.548706,2.709 -0.271512,0.257398 -0.65843,0.104128 -0.65843,0.104128 l 0.219533,1.041923 c 0,0 1.309059,0.93774 2.085035,0.93774 0.775996,0 1.516536,1.53129 1.865607,2.083864 0.349134,0.552575 0.109661,1.146125 0.109661,1.146125 v 1.250271 c 0.611022,-0.262057 0.715819,0.407799 1.097412,0.625153 -0.06353,0.595834 -0.755155,0.391048 -1.207136,0.625173 l 0.109662,0.625153 c 0.782789,-0.702208 0.852822,0.337376 1.31688,0.520971 l 0.987687,-0.103946 c 0.898574,0.487394 0,1.151934 0,1.458711 -0.821307,1.202335 0.07611,1.855421 0.32911,2.917403 0.569254,0.318413 0.433677,1.152956 0.548706,1.458692 l 3.073078,2.813037 c 0,0 0.24656,0.778734 0.438981,1.146124 0.193952,0.368432 1.310381,0.367427 1.426606,0.625172 0.301013,1.060301 1.845583,0.743184 2.524037,0.937722 0.193952,0.405205 0.109661,1.667095 0.109661,1.667095 0.59842,-0.01644 1.458875,0 2.085098,0 0.651364,0.642728 0.993432,1.424385 1.426626,2.083864 0.155162,0.405187 0.08324,0.649158 0.548685,0.833539 1.348228,0.460722 2.314422,1.507212 3.182509,2.396432 2.153243,0.736498 2.151943,1.682458 2.743507,3.334153 0.564117,1.208529 1.783539,1.170586 2.853252,1.562894 0.543254,0.368359 0.179484,0.747185 0.8779,1.041923 1.2692,0.818303 2.270222,2.120803 3.182509,3.125788 0.465547,0.552574 2.173687,2.180648 3.182488,2.917402 1.591244,0.578716 3.161583,1.561067 4.718839,2.604817 3.243147,-0.781054 2.676493,0.273072 4.060408,1.354509 0.193952,1.141959 -0.877962,2.083864 -0.877962,2.083864 0.658513,1.804581 1.965246,3.436364 2.963018,4.897066 0.672059,1.108309 2.094974,1.310629 3.072722,1.667095 0.76784,0.625154 0.32911,1.979626 0.32911,1.979626 2.50177,0.5559 4.812837,1.95807 7.133152,3.021605 l 2.743465,4.688678 c 0,0 -0.768155,0.2604 -1.536351,0.52095 -0.768364,0.26042 -0.603557,0.78137 -1.09739,0.93774 -0.493812,0.15638 -1.464746,0.41677 -1.755841,0.41677 -0.09687,0 -0.280633,-0.0764 -0.438981,-0.10394 0.07527,0.76642 2.057169,1.04192 2.962997,1.04192 0.102323,0.0581 0.330515,0.14743 0.43894,0.20839 l 0.658471,-0.93773 c 0,0 0.237796,0.0371 0.877921,0 0.640167,-0.0371 1.47762,0.19571 1.865607,0.41677 0.388013,0.22072 0.838923,0.49045 0.877903,0.41677 0.039,-0.0736 0.34142,-1.13396 0.76819,-1.04194 0.42676,0.0921 1.3297,0.82088 1.42663,1.04194 0.0973,0.22105 0.0644,0.55093 0.21953,0.93774 0.15516,0.38679 0.60643,0.90073 0.8779,0.93772 0.27151,0.0371 0.56978,0.20172 0.54871,0.31243 -0.0212,0.11034 -0.21951,0.59415 -0.21951,0.83353 0,0.23941 0.39842,0.0128 1.4266,0.10395 1.0282,0.0921 1.08355,0.81353 1.64612,0.83354 0.5625,0.0199 0.44495,0.19538 0.65847,0.72935 0.21356,0.53413 0.36018,0.18338 1.09741,0.31241 0.73716,0.12897 1.07755,0.57581 1.42661,0.83354 0.34913,0.25807 0.80627,0.23273 1.09741,0.41678 0.29118,0.18438 0.0843,0.59414 -0.10967,0.83354 -0.19416,0.23939 0.0635,0.2574 0.54871,0.3124 0.48501,0.0554 0.65122,-0.14194 1.09739,0.52098 0.44636,0.66317 0.3996,0.31874 0.7682,0.20838 0.36859,-0.11034 0.63184,0.37886 1.09741,1.04192 0.12371,0.17611 0.25991,0.28374 0.43898,0.41679 0.0245,0.0164 0.086,-0.0164 0.10966,0 0.48295,0.19704 0.86155,0.34731 1.3169,0.52095 0.3913,-0.1381 1.7978,-0.67753 2.41429,-0.93774 0.69838,-0.29474 1.18051,0.42205 1.64612,0.93774 0.46557,0.51573 1.75584,0.93774 1.75584,0.93774 l 0.10966,0.52094 c 0.2564,-0.0391 0.416,-0.0808 0.54871,-0.20839 0,0 1.29132,-0.036 1.53635,-1.14612 -0.16019,-0.19573 -0.28556,-0.42181 -0.43894,-0.62516 l 0.43894,0.41677 c 0.54871,-0.0267 1.6461,0.20839 1.6461,0.20839 0,0 0.19206,-0.57307 -0.65843,-1.04193 -0.85048,-0.46888 -1.28946,-1.01589 -0.43896,-1.45871 0.85047,-0.44283 1.64609,-0.33849 1.20715,-1.04192 -0.43898,-0.70332 -0.71332,-0.75539 -0.65847,-1.56289 0.0547,-0.80747 -0.41153,-1.01589 -1.53633,-1.45871 -2.04541,-1.62618 -1.49471,-3.14216 -1.09741,-4.89707 0.46636,-0.26039 1.45409,-0.33849 1.64609,-1.04192 0.19207,-0.703325 -0.71332,-1.614978 -0.65845,-2.292251 0.0547,-0.677236 1.20716,-3.464405 1.31688,-3.750941 0.10967,-0.286408 2.38689,0.729337 2.96302,0.520953 0.57618,-0.208385 1.70097,-0.494921 1.20714,-1.562894 -0.49381,-1.067955 -1.53635,-4.115591 -1.42663,-5.001231 0.10966,-0.885657 1.20714,-1.901511 1.20714,-2.396432 0,-0.494883 -1.26203,-1.432623 -0.98765,-1.875479 0.27432,-0.442802 2.93558,-1.84943 3.07273,-2.083846 0.13733,-0.234399 0.21953,-1.328477 0.43898,-1.354509 0.21951,-0.02667 2.05761,-0.755388 2.30454,-0.625154 0.24692,0.130434 1.39918,1.015891 1.53637,1.146106 0.13734,0.130434 -0.21951,0.989822 0.76816,1.667095 0.98769,0.677236 1.26201,0.780762 1.75588,-0.312403 0.49379,-1.094042 1.61867,-1.198207 1.6461,-1.771297 0.0281,-0.573035 -0.2743,-1.146106 -1.09739,-1.771278 -0.82309,-0.625154 -1.15231,-2.526666 -1.64612,-2.813201 -0.49387,-0.286408 -1.26201,0.286079 -2.0851,-0.312422 -0.823,-0.599104 -1.83816,-1.510811 -1.64609,-1.771278 0.19206,-0.260394 1.17973,-0.05206 1.31688,-1.458693 0.13734,-1.406591 0.35668,-0.599048 0.87792,-0.208384 0.52128,0.3907 1.67354,0.859607 2.19482,0.625154 0.52124,-0.234399 1.06994,-0.364559 1.75586,-0.729356 0.68588,-0.36465 0.90535,-0.286736 1.64612,-0.208384 0.55552,0.05864 0.83288,0.31275 1.20713,0.104128 0.12476,-0.06978 0.28802,-0.234398 0.43894,-0.416787 0.6036,-0.729337 0.90552,-1.641009 1.20716,-2.083846 0.30173,-0.44282 1.04256,-0.625154 1.75584,-0.833557 0.71333,-0.208385 1.12482,-0.651332 1.3169,-0.937722 0.19207,-0.286407 0.41152,-0.573126 0.7682,-0.208384 0.35664,0.36465 0.85035,0.963863 0.98764,1.250271 0.13734,0.286408 0.3565,-0.104311 0.76818,0 0.41155,0.104311 1.86544,0.624825 1.75588,-0.103946 -0.10882,-0.729355 -0.76824,-1.484706 -0.10966,-2.188029 0.65847,-0.703305 1.4816,-1.120038 1.3169,-1.979663 -0.1648,-0.859589 -0.0822,-0.885621 -1.09741,-1.250308 -1.01507,-0.364668 -1.2346,-1.406591 -2.52401,-2.39645 -1.28948,-0.989804 -4.00556,-0.911689 -4.71884,-1.562894 -0.71335,-0.651186 -1.2895,-0.729337 -1.5364,-2.917402 -0.24691,-2.188048 -2.24961,-2.891353 -2.1948,-4.167711 0.0547,-1.275846 0.65845,-0.339257 1.20714,-0.312421 0.54868,0.02667 2.38686,0.208403 2.74351,0.416787 0.35668,0.208385 1.34432,0.833374 3.5117,0.520952 2.16742,-0.312403 1.70101,-5.4e-5 2.41431,-1.041923 0.71333,-1.041923 1.37186,-1.562893 1.42661,-1.979662 0.0547,-0.416934 0.30172,-1.146125 -0.65843,-0.520971 -0.9602,0.625154 -0.60356,-0.93774 -1.42661,-0.93774 -0.82307,0 -1.59126,-0.364559 -1.97537,-1.146124 -0.38405,-0.78142 -1.09741,-0.989841 -0.87792,-1.354509 0.21953,-0.364687 -0.38407,0.390097 -1.20714,0 -0.82305,-0.390719 -1.26199,-1.250308 -1.97531,-1.250308 -0.71341,0 -0.79629,-0.833685 -0.76819,-1.146088 0.0281,-0.312422 -0.41158,-0.859589 -0.65848,-1.354509 -0.24691,-0.494792 -0.85047,-0.911562 -1.86554,-0.625154 -1.01511,0.286408 -1.45407,0.286408 -1.97533,-0.208384 -0.52128,-0.494428 -1.04258,0.598811 -1.75589,-0.103946 -0.71332,-0.703305 -1.48158,-1.614976 -1.53633,-2.083846 -0.0547,-0.468852 -0.87796,-0.677236 -0.87796,-1.667095 0,-0.989823 1.06984,-1.276395 0.98769,-2.396432 -0.0822,-1.120093 -1.64612,-2.943454 -0.98769,-3.646758 0.65847,-0.703287 1.70091,-0.833539 1.64612,-1.562894 -0.0552,-0.729355 -0.54843,-0.807506 0.10966,-1.458711 0.65843,-0.651222 1.28933,-1.380541 1.42663,-2.29223 0.13734,-0.911708 0.3017,-1.849448 0.87792,-2.396451 0.57613,-0.547039 1.23471,-1.693127 1.09739,-2.292212 -0.13734,-0.599103 0,-1.745228 0,-2.604817 0,-0.859588 0.0547,-1.797456 0.21953,-2.083864 0.16481,-0.286408 0.74077,-0.573144 0,-0.833538 -0.74073,-0.260394 -1.42663,-0.755516 -1.97533,-0.625154 -0.54869,0.130434 -1.23458,-0.442747 -1.75586,0 -0.52124,0.442783 -0.87792,0.677199 -1.31686,0.208384 -0.43899,-0.468888 -0.90539,6.4e-4 -1.5364,0.41677 -0.63102,0.416769 -1.1016,0.83341 -1.64609,1.250307 -0.52489,0.401917 -1.35838,1.536259 -2.30455,0.833557 -1.30879,0.143953 -3.92739,0.502648 -5.59678,0.312403 -1.45061,-0.346345 -2.33732,-1.920346 -2.74353,-2.292249 -0.45267,-0.377584 -0.13734,-0.924696 0.54871,-0.520952 1.72921,0.215052 -0.45917,-3.194951 -1.75584,-2.188048 -0.26061,-0.234398 0.13734,-0.794481 -0.43896,-1.354509 -0.57615,-0.560155 -0.63101,-0.221738 -1.20714,-0.625172 1.01889,-1.232605 -0.59584,-2.1484053 -1.53639,-0.729337 -0.61108,-1.5232515 -3.84123,-0.713717 -2.963,0.520953 -0.68449,0.340353 -1.67207,0.185056 -2.52403,0.104128 -0.68586,-0.520971 -1.06995,-1.38118 -1.42661,-1.354509 -0.35666,0.02667 -2.68863,0.80747 -3.07274,0.416769 -0.38407,-0.390773 -0.49381,-0.181768 -0.87792,-0.208384 -0.38407,-0.02667 -0.0547,-1.1982438 -1.42665,-0.7293556 -1.37175,0.4688516 -0.68584,1.0158906 -0.43894,1.4587106 0.24692,0.442801 -0.41151,1.094097 -1.09741,1.146106 -0.68586,0.05206 -1.26203,-0.182316 -1.75586,0 -0.49386,0.182316 -1.23459,-0.573144 -1.64612,-0.833538 -0.411031,-0.260394 0.302419,-0.573145 0.109662,-0.833539 -0.192065,-0.260394 -0.631025,-0.651332 -0.987666,-0.52097 -0.356662,0.130069 -0.521322,1.068338 -0.768154,0.312421 -0.246938,-0.7552227 -0.740771,-0.443276 -1.097411,-0.312421 -0.35683,0.130434 -0.246917,1.432039 -0.658472,1.45871 -0.411535,0.02667 -0.960114,0.208385 -0.877921,0.625154 0.08219,0.416769 0.576132,0.390737 -0.438981,1.354509 -1.015071,0.963681 -1.975311,1.510775 -3.072722,0.625154 -1.097411,-0.885731 -1.344328,-0.859717 -1.755841,-0.93774 -0.411534,-0.07801 -1.700968,-0.859717 -2.194801,-0.93774 -0.493854,-0.07801 -0.52128,-0.494281 -0.987687,-0.520952 -0.466365,-0.02667 -1.097411,0.781456 -1.755841,1.146124 -0.658283,0.364851 -0.548706,-0.208384 -0.768175,-0.312421 -1.48043,0.264065 -2.44652,0.32541 -3.840939,0 0,0 -0.08282,-1.250308 -0.329111,-1.250308 -0.246916,0 -0.192064,0.91105 -1.755862,0.93774 -1.563734,0.02667 -1.755841,-0.312422 -1.755841,-0.312422 -0.426652,-1.059625 -1.037087,-0.799998 -1.755841,-1.354509 0,0 -0.329445,0.494902 -0.43896,1.146124 -0.109661,0.651333 -1.015092,0.756027 -2.085098,0.729356 -1.069964,-0.02667 -0.955082,-0.33765 -1.426605,-0.520971 C 70.114576,11.678749 68.960845,11.305531 68.439566,10.966913 67.918286,10.628295 67.71622,9.7164228 67.451879,9.9249718 66.820749,10.422943 63.915727,10.279026 64.379157,9.5082026 64.897858,8.6452525 64.37706,8.1424038 63.940218,8.0495103 Z M 88.412289,97.341957 c 0.01677,0.01279 -0.01677,0.09006 0,0.103946 0.08114,0.06266 0.138388,0.14578 0.219533,0.208385 0.174661,-0.257727 0.02453,-0.183376 -0.109662,-0.312404 -0.06773,-0.0643 -0.07234,-0.05261 -0.109661,0 z m 1.207136,0.833539 c -0.03166,0.0091 -0.04215,0.08604 -0.109662,0.103945 0.06311,0.04878 0.156,0.05608 0.219512,0.104129 0.0063,-0.04129 0.0281,-0.04001 0,-0.104129 -0.0281,-0.06503 -0.07947,-0.115637 -0.109662,-0.103945 z" />
    </clipPath>
  </defs>
  <g
     id="layer1"
     transform="translate(-52.449216,-107.80555)">
    <g
       id="bosnia-flag"
       transform="matrix(0.12618573,0,0,0.14483326,49.048978,106.8618)"
       clip-path="url(#clipPath14701)">
      <rect
         y="3.5526999e-15"
         width="180"
         height="120"
         fill="#0d2b88"
         id="rect14649"
         x="0" />
      <path
         id="a-1"
         d="m 105.22,112.87 5.0256,-20.623 5.0256,20.623 -13.157,-12.746 h 16.263 l -13.157,12.746 z"
         fill="#ffffff" />
      <path
         d="m 47.7,0 h 90 v 120 z"
         fill="#ffd911"
         id="path14652" />
      <path
         d="m 28.378,0 h 3.1219 3.1219 L 36.5255,7.8728 31.4999,3 26.4743,7.8728 Z"
         fill="#ffffff"
         id="path14654" />
      <path
         d="m 118.38,120 -5.0097,-4.8728 6.219,-0.002 1.9125,-7.875 1.9125,7.875 6.219,0.002 -5.0097,4.8728 h -3.1219 -3.1219 z"
         fill="#ffffff"
         id="path14656" />
      <use
         transform="translate(-67.5,-90)"
         width="200"
         height="100"
         xlink:href="#a-1"
         id="use14658" />
      <use
         transform="translate(-56.25,-75)"
         width="200"
         height="100"
         xlink:href="#a-1"
         id="use14660" />
      <use
         transform="translate(-45,-60)"
         width="200"
         height="100"
         xlink:href="#a-1"
         id="use14662" />
      <use
         transform="translate(-33.75,-45)"
         width="200"
         height="100"
         xlink:href="#a-1"
         id="use14664" />
      <use
         transform="translate(-22.5,-30)"
         width="200"
         height="100"
         xlink:href="#a-1"
         id="use14666" />
      <use
         transform="translate(-11.25,-15)"
         width="200"
         height="100"
         xlink:href="#a-1"
         id="use14668" />
    </g>
    <path
       style="fill:none;stroke:#000000;stroke-width:0.185052;stroke-miterlimit:4;stroke-dasharray:none;stroke-opacity:1"
       id="bosnia-copy"
       d="m 57.022665,108.06718 c -0.05291,0.0682 -0.141198,0.15015 -0.166173,0.22636 0.007,0.0849 -0.101903,0.15549 -0.138477,0.21127 0.01387,0.0302 0.03111,0.0943 -0.04153,0.13581 -0.0727,0.0415 -0.286607,-0.0638 -0.360043,-0.0905 -0.07344,-0.0267 -0.152323,0.0905 -0.152323,0.0905 0,0 -0.2883,-0.11799 -0.332346,-0.16599 -0.04406,-0.048 -0.06504,0.0124 -0.138477,0.0604 -0.07344,0.048 -0.118072,-0.0151 -0.152323,-0.0151 -0.03426,0 -0.166174,0.0975 -0.166174,0.1509 0,0.0533 -0.05047,0.10916 -0.05539,0.13582 -0.0049,0.0267 0.04814,0.0913 0.01383,0.166 -0.03426,0.0747 -0.166173,0.19617 -0.166173,0.19617 -0.127011,0.0494 -0.06705,0.11694 -0.138477,0.24145 l 0.01383,0.19618 c -0.121998,0.0615 -0.07304,0.20894 -0.110785,0.3169 -0.393975,0.0477 -0.494526,-0.0723 -0.747773,-0.36217 -0.05875,-0.0587 -0.222262,-0.078 -0.290804,-0.12073 -0.06851,-0.0427 -0.03173,-0.13839 -0.04153,-0.18108 -0.0098,-0.0427 -0.149819,-0.20854 -0.193865,-0.25654 -0.152323,-0.0381 -0.0591,-0.0782 -0.19387,-0.25654 -0.08323,-0.0427 -0.126169,0.0124 -0.180019,0.0604 -0.05386,0.0481 -0.08227,0.025 -0.09693,-0.0604 -0.01467,-0.0854 -0.112319,0.0399 -0.166173,0.0452 -0.181225,-0.0502 -0.201919,0.0961 -0.332342,0.18109 -0.116113,0.19906 -0.02247,0.26996 0.04153,0.4678 l -0.09693,0.166 c 0.101894,0.0776 -0.05375,0.12693 -0.08308,0.19618 l 0.110781,0.25654 0.09694,0.0755 -0.01383,0.18109 c -0.210388,0.15169 -0.09467,0.18154 -0.04153,0.45271 -0.08846,0.16147 0.09786,0.16484 0.152323,0.25654 -0.04375,0.10033 -0.149917,0.14613 -0.221562,0.15091 0.04887,0.31014 0.276857,0.50547 0.443127,0.63381 l 0.06924,-0.12073 c 0.08984,0.13602 0.09526,-0.0727 0.138477,-0.10563 l 0.166173,0.22636 c 0.02176,-0.0317 0.100144,-0.0496 0.09693,-0.0151 0.03745,0.24008 0.163177,0.20193 0.30465,0.30181 0.134727,0.10953 0.05389,0.26726 0.06924,0.39235 -0.03426,0.0373 -0.08308,0.0151 -0.08308,0.0151 l 0.0277,0.15091 c 0,0 0.165185,0.13582 0.263103,0.13582 0.09792,0 0.191366,0.22178 0.235412,0.30181 0.04406,0.08 0.01383,0.16599 0.01383,0.16599 v 0.18109 c 0.0771,-0.038 0.09033,0.0591 0.138477,0.0905 -0.008,0.0863 -0.09529,0.0566 -0.152323,0.0905 l 0.01383,0.0905 c 0.09878,-0.10171 0.107616,0.0489 0.166173,0.0755 l 0.124631,-0.0151 c 0.113387,0.0706 0,0.16683 0,0.21127 -0.103636,0.17413 0.0096,0.26872 0.04153,0.42253 0.07183,0.0461 0.05472,0.16699 0.06924,0.21127 l 0.387779,0.40742 c 0,0 0.03111,0.11279 0.05539,0.166 0.02446,0.0534 0.165353,0.0532 0.180019,0.0905 0.03798,0.15357 0.232886,0.10764 0.318496,0.13582 0.02447,0.0587 0.01383,0.24144 0.01383,0.24144 0.07551,-0.002 0.184087,0 0.263108,0 0.08219,0.0931 0.125358,0.2063 0.180019,0.30182 0.01959,0.0587 0.0105,0.094 0.06924,0.12072 0.170127,0.0667 0.292046,0.2183 0.401585,0.34709 0.271711,0.10666 0.271547,0.24367 0.346193,0.48289 0.07118,0.17504 0.225058,0.16954 0.360038,0.22636 0.06855,0.0533 0.02265,0.10822 0.110781,0.15091 0.160155,0.11851 0.28647,0.30716 0.401585,0.45271 0.05875,0.08 0.27429,0.31583 0.401585,0.42254 0.200793,0.0838 0.398948,0.22609 0.59545,0.37727 0.40924,-0.11313 0.337737,0.0396 0.512366,0.19617 0.02447,0.1654 -0.110785,0.30182 -0.110785,0.30182 0.08309,0.26136 0.247986,0.4977 0.373889,0.70925 0.0848,0.16052 0.264358,0.18983 0.387735,0.24145 0.09689,0.0905 0.04153,0.28672 0.04153,0.28672 0.315686,0.0805 0.60731,0.28359 0.9001,0.43763 l 0.346188,0.67907 c 0,0 -0.09693,0.0377 -0.193865,0.0755 -0.09696,0.0377 -0.07616,0.11317 -0.138477,0.13582 -0.06231,0.0226 -0.184828,0.0604 -0.221561,0.0604 -0.01223,0 -0.03541,-0.0111 -0.05539,-0.0151 0.0095,0.111 0.259585,0.15091 0.373889,0.15091 0.0129,0.008 0.04171,0.0213 0.05539,0.0302 l 0.08309,-0.13582 c 0,0 0.03001,0.005 0.11078,0 0.08078,-0.005 0.186455,0.0284 0.235412,0.0604 0.04896,0.032 0.105861,0.071 0.110781,0.0604 0.0049,-0.0107 0.04308,-0.16423 0.09694,-0.15091 0.05385,0.0133 0.167786,0.11889 0.180019,0.15091 0.01228,0.032 0.0081,0.0798 0.0277,0.13582 0.01959,0.056 0.07652,0.13045 0.11078,0.13581 0.03426,0.005 0.0719,0.0292 0.06924,0.0452 -0.0027,0.016 -0.0277,0.0861 -0.0277,0.12073 0,0.0347 0.05028,0.002 0.180019,0.0151 0.129742,0.0133 0.136727,0.11782 0.207716,0.12072 0.07098,0.003 0.05615,0.0283 0.08309,0.10564 0.02695,0.0774 0.04545,0.0266 0.138477,0.0452 0.09302,0.0187 0.135973,0.0834 0.180019,0.12072 0.04406,0.0374 0.101739,0.0337 0.138477,0.0604 0.03674,0.0267 0.01064,0.0861 -0.01383,0.12073 -0.02451,0.0347 0.008,0.0373 0.06924,0.0452 0.0612,0.008 0.08218,-0.0206 0.138477,0.0755 0.05632,0.0961 0.05042,0.0462 0.09694,0.0302 0.04651,-0.016 0.07973,0.0549 0.138477,0.1509 0.0156,0.0255 0.0328,0.0411 0.05539,0.0604 0.0031,0.002 0.01086,-0.002 0.01383,0 0.06094,0.0285 0.108715,0.0503 0.166173,0.0755 0.04938,-0.02 0.226858,-0.0981 0.30465,-0.13581 0.08812,-0.0427 0.148964,0.0611 0.207716,0.13581 0.05875,0.0747 0.221561,0.13582 0.221561,0.13582 l 0.01383,0.0755 c 0.03235,-0.006 0.05249,-0.0117 0.06924,-0.0302 0,0 0.162947,-0.005 0.193865,-0.166 -0.02021,-0.0284 -0.03603,-0.0611 -0.05539,-0.0905 l 0.05539,0.0604 c 0.06924,-0.004 0.207716,0.0302 0.207716,0.0302 0,0 0.02424,-0.083 -0.08309,-0.15091 -0.107319,-0.0679 -0.162712,-0.14713 -0.05539,-0.21126 0.107319,-0.0641 0.207715,-0.049 0.152327,-0.15091 -0.05539,-0.10186 -0.09001,-0.10941 -0.08309,-0.22636 0.0069,-0.11695 -0.05193,-0.14713 -0.193865,-0.21127 -0.2581,-0.23552 -0.188609,-0.45509 -0.138477,-0.70926 0.05885,-0.0377 0.183485,-0.049 0.207716,-0.1509 0.02424,-0.10186 -0.09001,-0.2339 -0.08309,-0.332 0.0069,-0.0981 0.152327,-0.50176 0.166173,-0.54326 0.01383,-0.0415 0.301189,0.10564 0.373889,0.0755 0.0727,-0.0302 0.214638,-0.0717 0.152323,-0.22636 -0.06231,-0.15467 -0.193865,-0.59607 -0.18002,-0.72434 0.01383,-0.12827 0.152323,-0.2754 0.152323,-0.34708 0,-0.0717 -0.15925,-0.2075 -0.124626,-0.27163 0.03462,-0.0641 0.370427,-0.26786 0.387734,-0.30182 0.01733,-0.034 0.0277,-0.1924 0.05539,-0.19617 0.0277,-0.004 0.259642,-0.10941 0.2908,-0.0905 0.03116,0.0189 0.176558,0.14713 0.19387,0.16599 0.01733,0.0189 -0.0277,0.14336 0.09693,0.24145 0.124631,0.0981 0.159246,0.11308 0.221566,-0.0452 0.06231,-0.15845 0.204254,-0.17354 0.207715,-0.25654 0.0035,-0.083 -0.03462,-0.166 -0.138477,-0.25654 -0.103862,-0.0905 -0.145404,-0.36595 -0.207715,-0.40745 -0.06232,-0.0415 -0.159246,0.0414 -0.263108,-0.0452 -0.103854,-0.0868 -0.231951,-0.21881 -0.207716,-0.25654 0.02424,-0.0377 0.148866,-0.008 0.166174,-0.21126 0.01733,-0.20372 0.04501,-0.0868 0.11078,-0.0302 0.06578,0.0566 0.211177,0.1245 0.276954,0.0905 0.06577,-0.0339 0.135011,-0.0528 0.221566,-0.10564 0.08655,-0.0528 0.114242,-0.0415 0.207716,-0.0302 0.0701,0.008 0.105098,0.0453 0.152323,0.0151 0.01573,-0.0101 0.03634,-0.0339 0.05539,-0.0604 0.07617,-0.10563 0.114264,-0.23767 0.152327,-0.30181 0.03807,-0.0641 0.131554,-0.0905 0.221561,-0.12072 0.09001,-0.0302 0.141934,-0.0943 0.166174,-0.13582 0.02424,-0.0415 0.05193,-0.083 0.09694,-0.0302 0.045,0.0528 0.107301,0.1396 0.124626,0.18108 0.01733,0.0415 0.04499,-0.0151 0.09694,0 0.05193,0.0151 0.23539,0.0905 0.221566,-0.0151 -0.01374,-0.10563 -0.09694,-0.21503 -0.01383,-0.3169 0.08309,-0.10186 0.186955,-0.16222 0.166173,-0.28672 -0.02079,-0.12449 -0.01037,-0.12827 -0.138477,-0.18109 -0.128088,-0.0528 -0.155789,-0.20372 -0.318496,-0.34708 -0.162712,-0.14336 -0.505443,-0.13204 -0.595451,-0.22636 -0.09001,-0.0943 -0.162716,-0.10563 -0.193869,-0.42254 -0.03116,-0.3169 -0.283868,-0.41876 -0.276954,-0.60362 0.0069,-0.18479 0.08309,-0.0491 0.152323,-0.0452 0.06924,0.004 0.301189,0.0302 0.346192,0.0604 0.04501,0.0302 0.169635,0.1207 0.443128,0.0755 0.273497,-0.0452 0.214643,-1e-5 0.30465,-0.15091 0.09001,-0.1509 0.173109,-0.22635 0.180019,-0.28672 0.0069,-0.0604 0.03807,-0.16599 -0.08308,-0.0755 -0.121165,0.0905 -0.07616,-0.13581 -0.18002,-0.13581 -0.103857,0 -0.200792,-0.0528 -0.249262,-0.166 -0.04846,-0.11318 -0.138477,-0.14336 -0.11078,-0.19618 0.0277,-0.0528 -0.04847,0.0565 -0.152323,0 -0.103858,-0.0566 -0.159246,-0.18108 -0.249258,-0.18108 -0.09002,0 -0.100481,-0.12075 -0.09694,-0.166 0.0035,-0.0452 -0.05194,-0.12449 -0.08309,-0.19617 -0.03116,-0.0717 -0.107319,-0.13203 -0.235407,-0.0905 -0.128093,0.0415 -0.183481,0.0415 -0.249258,-0.0302 -0.06578,-0.0716 -0.131558,0.0867 -0.221566,-0.0151 -0.09001,-0.10187 -0.186955,-0.23391 -0.193865,-0.30182 -0.0069,-0.0679 -0.110785,-0.0981 -0.110785,-0.24144 0,-0.14336 0.134998,-0.18487 0.124631,-0.34709 -0.01037,-0.16222 -0.207715,-0.42631 -0.124631,-0.52817 0.08309,-0.10186 0.21463,-0.12072 0.207716,-0.22636 -0.007,-0.10563 -0.0692,-0.11695 0.01383,-0.21127 0.08308,-0.0943 0.162694,-0.19995 0.180019,-0.33199 0.01733,-0.13204 0.03807,-0.26786 0.110781,-0.34708 0.0727,-0.0792 0.155802,-0.24523 0.138477,-0.33199 -0.01733,-0.0868 0,-0.25277 0,-0.37727 0,-0.12449 0.0069,-0.26033 0.0277,-0.30181 0.02079,-0.0415 0.09347,-0.083 0,-0.12072 -0.09347,-0.0377 -0.180019,-0.10943 -0.249257,-0.0905 -0.06924,0.0189 -0.155789,-0.0641 -0.221566,0 -0.06577,0.0641 -0.110781,0.0981 -0.166169,0.0302 -0.05539,-0.0679 -0.114247,9e-5 -0.19387,0.0604 -0.07963,0.0604 -0.139008,0.1207 -0.207715,0.18108 -0.06623,0.0582 -0.171408,0.2225 -0.2908,0.12073 -0.165149,0.0209 -0.495581,0.0728 -0.706235,0.0452 -0.183047,-0.0502 -0.294935,-0.27813 -0.346193,-0.332 -0.05712,-0.0547 -0.01733,-0.13392 0.06924,-0.0754 0.218202,0.0311 -0.05794,-0.46273 -0.221562,-0.3169 -0.03289,-0.034 0.01733,-0.11506 -0.05539,-0.19618 -0.0727,-0.0811 -0.07962,-0.0321 -0.152323,-0.0905 0.128571,-0.17852 -0.07519,-0.31116 -0.19387,-0.10563 -0.07711,-0.22062 -0.484709,-0.10337 -0.373889,0.0754 -0.08637,0.0493 -0.21099,0.0268 -0.318496,0.0151 -0.08655,-0.0755 -0.135011,-0.20004 -0.180019,-0.19618 -0.045,0.004 -0.339265,0.11695 -0.387735,0.0604 -0.04847,-0.0566 -0.06231,-0.0263 -0.110781,-0.0302 -0.04847,-0.004 -0.0069,-0.17354 -0.180023,-0.10563 -0.173096,0.0679 -0.08654,0.14713 -0.05539,0.21127 0.03116,0.0641 -0.05193,0.15846 -0.138477,0.16599 -0.08655,0.008 -0.159251,-0.0264 -0.221566,0 -0.06232,0.0264 -0.155785,-0.083 -0.207716,-0.12072 -0.05186,-0.0377 0.03816,-0.083 0.01383,-0.12073 -0.02424,-0.0377 -0.07963,-0.0943 -0.124632,-0.0754 -0.045,0.0188 -0.06578,0.15473 -0.09693,0.0452 -0.03116,-0.10938 -0.09347,-0.0642 -0.138477,-0.0452 -0.04503,0.0189 -0.03116,0.20741 -0.08309,0.21127 -0.05193,0.004 -0.121152,0.0302 -0.11078,0.0905 0.01037,0.0604 0.0727,0.0566 -0.05539,0.19618 -0.128088,0.13957 -0.249258,0.21881 -0.387735,0.0905 -0.138477,-0.12828 -0.169635,-0.12452 -0.221561,-0.13582 -0.05193,-0.0113 -0.214639,-0.12451 -0.276954,-0.13581 -0.06232,-0.0113 -0.06578,-0.0716 -0.124631,-0.0754 -0.05885,-0.004 -0.138477,0.11318 -0.221562,0.166 -0.08307,0.0528 -0.06924,-0.0302 -0.09693,-0.0453 -0.18681,0.0383 -0.308715,0.0471 -0.48467,0 0,0 -0.01046,-0.18109 -0.04153,-0.18109 -0.03116,0 -0.02424,0.13195 -0.221566,0.13581 -0.197322,0.004 -0.221561,-0.0452 -0.221561,-0.0452 -0.05384,-0.15347 -0.130867,-0.11586 -0.221562,-0.19617 0,0 -0.04157,0.0717 -0.05539,0.16599 -0.01383,0.0943 -0.128088,0.1095 -0.263108,0.10564 -0.135016,-0.004 -0.120518,-0.0489 -0.180019,-0.0755 -0.107134,-0.0478 -0.25272,-0.10187 -0.318497,-0.15091 -0.06578,-0.049 -0.09128,-0.18111 -0.124631,-0.15091 -0.07964,0.0721 -0.446212,0.0513 -0.387734,-0.0604 0.06545,-0.12498 -3.68e-4,-0.19781 -0.05539,-0.21126 z m 3.088036,12.93263 c 0.0022,0.002 -0.0022,0.013 0,0.0151 0.01024,0.009 0.01746,0.0211 0.0277,0.0302 0.02203,-0.0373 0.0031,-0.0266 -0.01383,-0.0453 -0.0086,-0.009 -0.0091,-0.008 -0.01383,0 z m 0.152323,0.12072 c -0.004,0.001 -0.0053,0.0125 -0.01383,0.0151 0.008,0.007 0.01968,0.008 0.0277,0.0151 8.86e-4,-0.006 0.0035,-0.006 0,-0.0151 -0.0035,-0.009 -0.01002,-0.0168 -0.01383,-0.0151 z" />
  </g>
</svg>
