<?xml version="1.0" encoding="UTF-8" standalone="no"?>
<!-- Created with Inkscape (http://www.inkscape.org/) -->

<svg
   width="24.669731mm"
   height="20.465057mm"
   viewBox="0 0 24.669731 20.465057"
   version="1.1"
   id="svg5219"
   xmlns="http://www.w3.org/2000/svg"
   xmlns:svg="http://www.w3.org/2000/svg">
  <defs
     id="defs5216">
    <clipPath
       clipPathUnits="userSpaceOnUse"
       id="clipPath12831">
      <path
         style="fill:#c0c0c0;fill-opacity:1;stroke:#000000;stroke-width:0.0261981;stroke-miterlimit:4;stroke-dasharray:none;stroke-opacity:1"
         id="path12833"
         d="m 3.051795,0.13650011 c -0.00324,0.003208 -0.00567,0.003161 -0.010049,0.006248 -0.017783,0.0125739 -0.026476,0.007115 -0.036176,0.002079 -0.0097,-0.005028 -0.026037,-0.003781 -0.042205,0.002079 -0.016167,0.005862 -0.020793,0.002083 -0.040195,0.002083 -0.019401,0 -0.013979,0.0129079 -0.030146,0.0145876 -0.016167,0.001673 -0.018391,0.006655 -0.036176,0.008336 -0.017784,0.001673 -0.00998,0.009967 -0.022107,0.0166717 -0.012126,0.006706 -0.02003,0.0103272 -0.032156,0.0270917 C 2.79046,0.23243991 2.777748,0.23984401 2.76239,0.24068371 2.748206,0.24145832 2.736487,0.24785171 2.730234,0.25735581 2.6061023,0.28041151 2.5064089,0.32691451 2.4609271,0.3969819 2.3583745,0.50332158 2.3323733,0.68243938 2.1996589,0.77001297 2.0790077,0.84507697 1.9886993,0.79502417 1.8680493,0.78876887 1.7715293,0.78251387 1.6691326,0.77624907 1.578644,0.80752477 1.542449,0.82003587 1.53043,0.87003677 1.494234,0.88254777 1.3253239,0.94510088 1.1265405,0.84502643 0.95763009,0.86379215 0.82491451,0.8763036 0.82104535,1.0097039 0.67626419,0.94715141 0.61343226,0.92473697 0.6343125,0.82884433 0.67023697,0.8096091 0.7136517,0.78636378 0.74511489,0.75803781 0.72048109,0.73458569 0.699367,0.7134786 0.64771592,0.73347858 0.59788575,0.69915813 c -0.0380584,-0.0262119 -0.0595568,-0.041881 -0.098478,-0.0416796 -0.0330195,0.0224203 -0.0392937,0.0618634 -0.0261272,0.11670268 -0.006034,0.009383 -0.0257727,0.0111164 -0.0361756,0.02084 -0.0104017,0.009723 -0.0114466,0.0270563 -0.0221067,0.0312596 -0.0213207,0.008406 -0.0371752,-0.001034 -0.0462244,0.0208396 0.003962,0.053726 -0.006904,0.052723 -0.006027,0.0646034 7.2575e-4,0.009857 0.0114009,0.014121 0.006027,0.0458476 -0.008143,0.0480954 -0.004921,0.0595896 0.00402,0.0687702 0.008942,0.00918 0.0219236,0.016302 0.0321563,0.060435 0.0103207,0.044512 0.0589443,0.013292 0.062302,0.070855 0.004143,0.071007 0.0321471,0.096897 0.0502441,0.1125348 0.043518,-0.00129 0.0215211,0.028519 0.0502437,0.018756 0.0267965,-0.00911 0.0143811,0.039023 0.0683319,0.029176 0.0242947,-0.00443 0.0273444,0.043046 0.0602929,0.050015 0.0208868,0.00442 0.0119853,0.02876 0.0502437,0.058351 0.0358807,0.027753 0.0602895,0.018232 0.0663217,0.022923 0.0180978,0.018766 -5.7984e-4,0.061158 -0.0261264,0.089611 -0.006001,0.00669 -0.0196165,0.038127 -0.028137,0.062519 -0.014623,0.041867 -0.0398639,0.026971 -0.0381851,0.050015 0.005577,0.076551 -0.015555,0.072553 -0.024117,0.075023 -0.0206521,0.00596 -0.0301388,0.023944 -0.0482347,0.00834 -0.0112527,-0.00971 -0.0332292,-0.01045 -0.0341658,0.022923 -0.051385,-0.02778 -0.002458,0.00774 -0.0643119,0.050015 -0.009049,0.015638 0.0253542,0.032772 0.0361756,0.056268 0.0108214,0.023495 -0.0162753,0.034395 -0.00402,0.077106 0,0.031276 -0.008039,0.039579 -0.002008,0.070855 0.006034,0.01251 0.004014,-0.00417 0.016078,0.00208 0.018097,0.012511 0.050241,0.039582 0.0562729,0.064603 0.0192648,0.081852 -0.0300017,0.053542 -0.0261268,0.087527 -0.0105857,0.017131 9.6383e-4,0.039358 -0.0160776,0.043764 -0.0283398,0.00731 -0.0418914,0.0094 -0.0422055,0.025008 0.0139387,-0.0023 0.0173851,0.00927 0.0321567,0.022924 0.0163429,0.015104 0.0348658,0.030628 0.0401949,0.04168 0.005333,0.011052 0.0198538,0.00648 0.0241166,0.014588 0.004265,0.0081 0.0109616,0.03529 0.0301465,0.043764 0.0191853,0.00847 0.0334235,0.024386 0.052254,0.029175 0.0188297,0.00479 0.0316579,0.016188 0.0462244,0.012504 0.0145669,-0.00369 0.0247962,0.00919 0.0422044,0.012504 0.0174089,0.00331 0.0227971,-1.461e-4 0.0341662,0.00208 0.0113686,0.00221 0.0327338,-0.015896 0.0401949,0.03126 0.007461,0.047155 0.0223298,0.072549 0.0301465,0.085443 0.007816,0.012894 0.0213641,0.010007 0.0381854,0.056268 0.006538,0.017978 0.0172077,0.030182 0.0221071,0.035427 6.4515e-4,-3.65e-5 0.001382,3.66e-5 0.002008,0 4.493e-4,5.335e-4 -1.92e-4,0.00399 0,0.00417 2.75e-5,7.344e-4 -7.3e-6,0.00137 0,0.00208 6.605e-4,5.335e-4 0.00136,0.00153 0.00201,0.00208 0.00377,0.038982 -0.0231961,0.045382 -0.028137,0.081275 -6.4511e-4,0.00625 -6.9503e-4,0.012982 0,0.02084 6.4512e-4,0.00783 0.001478,0.016865 0.00402,0.027092 0.006644,0.026757 0.0138819,0.057442 0.0200976,0.087526 2.6885e-4,0.0013 -2.688e-4,0.00287 0,0.00417 0.00575,0.028676 0.0113467,0.056593 0.0100488,0.081275 3.84e-5,5.992e-4 -3.84e-5,0.00147 0,0.00208 0.02413,0 0.05023,-0.00208 0.074361,-0.00208 0.024129,0 0.048224,-0.00208 0.066322,-0.02084 0.024131,-0.012511 0.00803,-0.047924 0.032156,-0.060435 0.03318,-0.021893 0.039963,0.033532 0.062303,0.00417 0.038015,-0.049964 0.1105171,-0.014581 0.1467119,-0.027091 0.024665,-0.011479 0.011198,-0.022542 0.032156,-0.029176 0.032095,-0.010159 0.044646,-0.0028 0.1045075,-0.058351 0.029107,-0.02701 0.025226,8.952e-4 0.074361,-0.014588 0.055448,-0.017474 0.011447,-0.05423 0.038185,-0.083359 0.01337,-0.014565 0.032362,0.012568 0.054263,0.00625 0.021902,-0.00631 0.047605,-0.046723 0.058283,-0.041679 0.015585,0.012497 0.046211,0.018765 0.070341,0.00625 0.036195,-0.00626 0.040175,-0.050023 0.076371,-0.037512 0.030674,0.0099 0.016055,0.06459 0.058283,0.089611 0.00603,0.01251 0.062296,-0.00209 0.074361,0.00417 0.018098,0.00625 0.034156,0.047935 0.052254,0.041679 0.02413,-0.00625 -0.00805,-0.035424 0.016078,-0.041679 0.025363,0.00167 0.032744,-0.011863 0.052253,-0.00834 0.04751,0.00859 0.1688037,0.038545 0.1989663,0.054183 0.012065,0.00626 0.00401,0.022924 0.022107,0.022924 0.041629,-0.011883 0.1148289,-0.052157 0.1406827,-0.056267 0.021073,-0.00335 0.00107,-0.025265 0.024117,-0.03126 0.027012,-0.00702 0.055962,0.00133 0.0824,-0.00834 0.026438,-0.00966 0.047218,-0.03386 0.068332,-0.04168 0.014386,-0.00111 0.00686,0.028284 0.044215,0.014588 0.037354,-0.013696 0.1205851,-0.070855 0.1205851,-0.070855 0.016589,-0.013293 0.019005,-0.030083 0.018087,-0.047931 -9.215e-4,-0.017848 0.00992,-0.026301 -0.010049,-0.052099 -0.020319,-0.026252 0.025158,-0.032523 -0.034165,-0.085442 -0.056209,-0.050141 -0.093517,-0.1083537 0.024117,-0.1333748 0.018098,0 0.05177,0.018817 0.078381,0 -0.054293,-0.093829 0.084391,-0.087503 0.1205855,-0.1312902 0.024131,-0.037532 -0.012077,-0.1000138 0.024117,-0.1312906 0.030163,-0.031276 0.084388,9.9e-6 0.1266142,-0.018756 L 3.305025,1.8265653 c 0.1387486,-0.075064 0.1808028,0.037494 0.3195514,0.068771 0.00603,0.00626 -0.00603,-0.018753 0.00603,-0.025008 0.042227,-0.031276 0.078355,-0.075013 0.1266146,-0.093779 0.036195,-0.012512 0.072332,-0.00625 0.1085268,-0.012504 h 0.012058 C 3.87177,1.7452803 3.853696,1.7265478 3.835599,1.7015267 3.8054356,1.6765053 3.6728114,1.5952474 3.6667792,1.588992 c 0,-0.01251 0.018091,-0.031253 0.012059,-0.043763 C 3.6124802,1.3763357 3.3471702,1.601578 3.455755,1.45145 3.479886,1.413919 3.534122,1.401455 3.5582531,1.363923 c 0.012065,-0.01251 -0.02412,-0.031249 -0.018088,-0.050015 0.00603,-0.025021 0.036169,-0.031246 0.048235,-0.056267 0,-0.00626 -0.024121,-0.018756 -0.018088,-0.018756 0.030162,-0.018766 0.0844,1.68e-5 0.1024973,-0.03126 C 3.6909061,1.1763483 3.654724,1.1263701 3.6486918,1.0888386 3.624561,0.98875358 3.6306109,0.9263432 3.6185453,0.82625815 c 0,-0.0125104 -0.036176,-0.006242 -0.036176,-0.0187559 0.012066,-0.0187657 0.05426,-0.0187431 0.060293,-0.0437634 0.010905,-0.0430531 0.013596,-0.0832423 0.010049,-0.1208706 -1.92e-4,-0.002094 2.688e-4,-0.004174 0,-0.006248 0.00281,-0.007827 0.00669,-0.0119652 0.014069,-0.02084 0.014756,-0.0177507 0.013381,-0.0182622 0.028137,-0.0145879 0.014756,0.003675 0.029488,-0.008482 0.064313,-0.0250076 0.034822,-0.0165277 0.050176,-0.006235 0.084409,0.004168 0.034237,0.0104047 0.026018,-0.004561 0.030146,-0.0229238 0.00414,-0.0183609 0.01799,-0.003895 0.032157,-0.0687706 0.014166,-0.064876 0.015331,-0.0558178 -0.010049,-0.0833589 -0.025379,-0.0275418 -0.01102,-0.0438087 -0.028137,-0.075023 -0.017105,-0.0312151 0.00708,-0.0244109 0,-0.0354276 -0.00709,-0.0110181 -0.00603,-0.011777 -0.00603,-0.0166721 0,-0.001962 3.072e-4,-0.005408 0,-0.008336 l -0.072351,0.0250079 -0.056274,-0.006249 -0.068331,0.0166717 -0.1527418,-0.0416793 -0.020098,-0.0437371 -0.018087,-0.0166717 -0.012059,-0.0437634 -0.018087,-0.0166717 -0.038185,0.0458472 c 0,0 -0.046289,0.02119 -0.066322,0.0229238 -0.020034,0.001728 -0.029036,-0.0427718 -0.048234,-0.0583513 -0.0096,-0.00779 -0.012921,-0.009065 -0.014069,-0.006248 -0.00115,0.002813 -3.072e-4,0.009748 -0.00201,0.0166717 -0.00334,0.0138524 -0.00878,0.0182458 -0.032156,0.0208396 -0.023372,0.002594 -0.055502,0.003336 -0.07637,0.0145879 -0.020868,0.0112523 -0.020657,0.0124387 -0.038186,-0.008336 -0.01753,-0.0207717 -0.036547,-0.0187558 -0.048234,-0.0187558 -0.011687,0 -0.028137,-0.0354276 -0.028137,-0.0354271 z" />
    </clipPath>
  </defs>
  <g
     id="layer1"
     transform="translate(-92.118548,-71.604269)">
    <g
       id="bulgaria-flag"
       transform="matrix(6.890241,0,0,7.2412554,89.806524,70.682262)"
       clip-path="url(#clipPath12831)">
      <rect
         width="4.5"
         height="3"
         fill="#ffffff"
         id="rect12804"
         x="0"
         y="0" />
      <rect
         y="1"
         width="4.5"
         height="2"
         fill="#00966e"
         id="rect12806"
         x="0" />
      <rect
         y="2"
         width="4.5"
         height="1"
         fill="#d62612"
         id="rect12808"
         x="0" />
    </g>
    <path
       style="fill:none;fill-opacity:1;stroke:#000000;stroke-width:0.185052;stroke-miterlimit:4;stroke-dasharray:none;stroke-opacity:1"
       id="bulgaria-copy"
       d="m 110.73948,71.71035 c -0.0223,0.02323 -0.0391,0.02289 -0.0692,0.04525 -0.12253,0.09105 -0.18242,0.05152 -0.24926,0.01507 -0.0668,-0.03641 -0.1794,-0.02738 -0.2908,0.01507 -0.1114,0.04245 -0.14328,0.01507 -0.27696,0.01507 -0.13368,0 -0.0963,0.09347 -0.20771,0.105634 -0.1114,0.01212 -0.12672,0.04819 -0.24926,0.06036 -0.12254,0.01212 -0.0688,0.07217 -0.15232,0.120725 -0.0836,0.04856 -0.13802,0.07478 -0.22157,0.196178 -0.0836,0.121391 -0.17113,0.175007 -0.27695,0.181087 -0.0977,0.0056 -0.17849,0.05191 -0.22156,0.120725 -0.8553,0.166953 -1.54221,0.503693 -1.85559,1.01107 -0.70662,0.770032 -0.88577,2.06707 -1.8002,2.701214 -0.83132,0.543556 -1.45357,0.181111 -2.28488,0.135815 -0.66504,-0.0453 -1.37058,-0.09066 -1.99407,0.135816 -0.24939,0.0906 -0.33221,0.452665 -0.5816,0.543261 -1.163834,0.45296 -2.5335,-0.271703 -3.697333,-0.135815 -0.914443,0.0906 -0.941102,1.056584 -1.938678,0.603624 -0.432929,-0.162307 -0.289058,-0.856692 -0.04153,-0.99598 0.299137,-0.168324 0.515925,-0.37344 0.346192,-0.543262 -0.145479,-0.152842 -0.501369,-0.008 -0.844712,-0.25654 -0.26223,-0.189808 -0.410361,-0.30327 -0.678535,-0.301812 -0.227513,0.162351 -0.270744,0.447966 -0.180023,0.845074 -0.04157,0.06794 -0.177582,0.08049 -0.249258,0.150906 -0.07167,0.07041 -0.07887,0.195922 -0.152323,0.226359 -0.146902,0.06087 -0.256145,-0.0075 -0.318496,0.150906 0.0273,0.389043 -0.04757,0.38178 -0.04153,0.467809 0.005,0.07138 0.07855,0.102254 0.04153,0.331993 -0.05611,0.348272 -0.03391,0.431504 0.0277,0.497985 0.06162,0.06648 0.151059,0.118045 0.221566,0.437628 0.07111,0.32232 0.406141,0.09625 0.429276,0.51308 0.02854,0.514177 0.2215,0.701653 0.346193,0.814893 0.29985,-0.0094 0.148285,0.206512 0.346192,0.135815 0.184633,-0.06595 0.09909,0.282574 0.470824,0.211269 0.167397,-0.03211 0.188409,0.311702 0.415431,0.362174 0.143915,0.03202 0.08258,0.208255 0.346193,0.422537 0.247227,0.200968 0.415408,0.132025 0.456973,0.165992 0.124697,0.135888 -0.004,0.442862 -0.180019,0.648896 -0.04135,0.04842 -0.135162,0.276083 -0.19387,0.452718 -0.100755,0.303169 -0.274672,0.195304 -0.263104,0.362174 0.03843,0.554325 -0.107177,0.525376 -0.166173,0.543262 -0.142297,0.04312 -0.207662,0.17338 -0.332347,0.06036 -0.07753,-0.07028 -0.228958,-0.07567 -0.235411,0.165996 -0.354055,-0.201166 -0.01693,0.05604 -0.443123,0.362175 -0.06235,0.11324 0.174696,0.237306 0.249258,0.407446 0.07456,0.170135 -0.112142,0.249065 -0.0277,0.558348 0,0.226479 -0.05539,0.2866 -0.01383,0.51308 0.04157,0.09059 0.02766,-0.03018 0.11078,0.01507 0.124693,0.09059 0.346175,0.28662 0.387735,0.467808 0.132737,0.592716 -0.206718,0.38771 -0.180019,0.633806 -0.07294,0.124047 0.0066,0.285002 -0.110781,0.316902 -0.195266,0.05296 -0.288641,0.06804 -0.290804,0.181088 0.09604,-0.01666 0.119787,0.06716 0.221566,0.165996 0.112606,0.109372 0.240234,0.221781 0.276954,0.301812 0.03674,0.08003 0.136797,0.04694 0.166168,0.105634 0.02939,0.05869 0.07553,0.255546 0.207716,0.316903 0.132192,0.06136 0.230297,0.176587 0.360043,0.211264 0.129741,0.03467 0.218131,0.117219 0.318496,0.09054 0.10037,-0.0267 0.170854,0.06653 0.2908,0.09054 0.119951,0.024 0.157079,-9.66e-4 0.235412,0.01507 0.07833,0.01598 0.225546,-0.115103 0.276954,0.22636 0.05141,0.341462 0.153856,0.525346 0.207715,0.618714 0.05385,0.09337 0.147204,0.07246 0.263108,0.407447 0.04504,0.13018 0.118564,0.218555 0.152323,0.25654 0.0044,-3.82e-4 0.0095,3.72e-4 0.01383,0 0.0031,0.0039 -0.0013,0.02893 0,0.03018 1.91e-4,0.0053 -4.8e-5,0.0099 0,0.01507 0.0046,0.0039 0.0094,0.01106 0.01383,0.01507 0.02602,0.282279 -0.159827,0.328623 -0.19387,0.588534 -0.0044,0.0453 -0.0048,0.09401 0,0.150906 0.0044,0.05669 0.01019,0.12212 0.0277,0.196177 0.04578,0.193754 0.09565,0.415951 0.138477,0.633801 0.0018,0.0094 -0.0018,0.02076 0,0.03018 0.03962,0.207652 0.07818,0.409808 0.06924,0.588534 2.97e-4,0.0043 -2.79e-4,0.01062 0,0.01507 0.166267,0 0.3461,-0.01507 0.512366,-0.01507 0.166258,0 0.332276,-0.01502 0.456973,-0.150906 0.166267,-0.0906 0.05531,-0.347031 0.221562,-0.437628 0.228617,-0.158531 0.275358,0.242816 0.429281,0.03018 0.261929,-0.361797 0.761491,-0.105586 1.010881,-0.196173 0.16995,-0.08312 0.07716,-0.163234 0.221562,-0.211268 0.221145,-0.07357 0.307624,-0.02028 0.720079,-0.422537 0.20056,-0.195589 0.17381,0.0065 0.51237,-0.105634 0.38205,-0.126534 0.0789,-0.392694 0.26311,-0.603624 0.0921,-0.105466 0.22298,0.09101 0.37388,0.04525 0.15091,-0.04568 0.32801,-0.338333 0.40159,-0.301812 0.10738,0.0905 0.3184,0.135883 0.48467,0.04525 0.24939,-0.0453 0.27681,-0.362228 0.52621,-0.271631 0.21135,0.0717 0.11062,0.467707 0.40158,0.648896 0.0416,0.09059 0.42923,-0.01512 0.51236,0.03018 0.1247,0.0453 0.23535,0.347108 0.36005,0.301812 0.16626,-0.0453 -0.0555,-0.256516 0.11078,-0.301812 0.17475,0.01207 0.22561,-0.0859 0.36004,-0.06036 0.32735,0.06221 1.16309,0.279116 1.37092,0.392355 0.0831,0.0453 0.0276,0.165997 0.15232,0.165997 0.28684,-0.08605 0.7912,-0.377685 0.96934,-0.407446 0.1452,-0.02424 0.007,-0.182951 0.16617,-0.226359 0.18613,-0.05086 0.3856,0.0096 0.56776,-0.06036 0.18216,-0.06993 0.32534,-0.245192 0.47082,-0.301812 0.0991,-0.008 0.0473,0.204812 0.30465,0.105634 0.25738,-0.09917 0.83086,-0.51308 0.83086,-0.51308 0.11431,-0.09626 0.13095,-0.217841 0.12463,-0.347084 -0.006,-0.129243 0.0683,-0.190455 -0.0692,-0.377265 -0.14,-0.190098 0.17335,-0.235505 -0.23541,-0.61871 -0.38729,-0.363082 -0.64435,-0.784615 0.16617,-0.965799 0.1247,0 0.35671,0.13626 0.54007,0 -0.3741,-0.679444 0.58147,-0.633631 0.83086,-0.950708 0.16626,-0.271775 -0.0832,-0.724223 0.16617,-0.950708 0.20783,-0.226479 0.58145,7.3e-5 0.8724,-0.135815 l 0.70624,-0.86016 c 0.95601,-0.543556 1.24577,0.271506 2.20178,0.49799 0.0416,0.0453 -0.0415,-0.135791 0.0415,-0.181087 0.29096,-0.22648 0.53989,-0.543189 0.87241,-0.679077 0.24939,-0.0906 0.49838,-0.04525 0.74777,-0.09054 h 0.0831 c -0.0416,-0.135888 -0.1661,-0.271534 -0.2908,-0.452718 -0.20783,-0.181189 -1.12164,-0.769597 -1.16321,-0.814893 0,-0.09059 0.12466,-0.22631 0.0831,-0.316902 -0.45722,-1.223001 -2.28527,0.408035 -1.53709,-0.679077 0.16626,-0.271771 0.53997,-0.362025 0.70623,-0.633801 0.0831,-0.09059 -0.16619,-0.226287 -0.12463,-0.362174 0.0416,-0.181179 0.24921,-0.226258 0.33235,-0.407447 0,-0.0453 -0.1662,-0.135815 -0.12463,-0.135815 0.20782,-0.135888 0.58153,1.21e-4 0.70623,-0.226359 0.1247,-0.226485 -0.12461,-0.588389 -0.16617,-0.860165 -0.16627,-0.72474 -0.12458,-1.176671 -0.20772,-1.901411 0,-0.09059 -0.24926,-0.0452 -0.24926,-0.135815 0.0831,-0.135888 0.37387,-0.135724 0.41543,-0.316903 0.0751,-0.31176 0.0937,-0.602779 0.0692,-0.875255 -10e-4,-0.01516 0.002,-0.03023 0,-0.04525 0.0194,-0.05667 0.0461,-0.08664 0.0969,-0.150906 0.10168,-0.128538 0.0922,-0.132242 0.19387,-0.105634 0.10167,0.02661 0.20318,-0.06142 0.44313,-0.181087 0.23994,-0.119682 0.34573,-0.04515 0.5816,0.03018 0.2359,0.07534 0.17927,-0.03303 0.20771,-0.165997 0.0285,-0.132956 0.12396,-0.0282 0.22157,-0.497985 0.0976,-0.469783 0.10564,-0.404191 -0.0692,-0.603624 -0.17486,-0.199437 -0.0759,-0.317231 -0.19387,-0.543262 -0.11786,-0.226035 0.0488,-0.176765 0,-0.25654 -0.0488,-0.07978 -0.0415,-0.08528 -0.0415,-0.120725 0,-0.0142 0.002,-0.03916 0,-0.06036 l -0.49851,0.181087 -0.38774,-0.04525 -0.47082,0.120725 -1.05243,-0.301812 -0.13848,-0.316709 -0.12462,-0.120725 -0.0831,-0.316903 -0.12463,-0.120725 -0.26311,0.331994 c 0,0 -0.31894,0.153441 -0.45697,0.165996 -0.13804,0.01251 -0.20006,-0.309722 -0.33234,-0.422537 -0.0661,-0.05641 -0.089,-0.06564 -0.0969,-0.04525 -0.008,0.02038 -0.002,0.07059 -0.0138,0.120725 -0.023,0.100307 -0.0605,0.132121 -0.22157,0.150906 -0.16104,0.01878 -0.38242,0.02415 -0.52621,0.105634 -0.14378,0.08148 -0.14233,0.09007 -0.26311,-0.06036 -0.12078,-0.150413 -0.25182,-0.135815 -0.33234,-0.135815 -0.0805,0 -0.19387,-0.25654 -0.19387,-0.25654 z" />
  </g>
</svg>
