<?xml version="1.0" encoding="UTF-8" standalone="no"?>
<!-- Created with Inkscape (http://www.inkscape.org/) -->

<svg
   width="20.124678mm"
   height="12.168682mm"
   viewBox="0 0 20.124678 12.168682"
   version="1.1"
   id="svg4364"
   xmlns="http://www.w3.org/2000/svg"
   xmlns:svg="http://www.w3.org/2000/svg">
  <defs
     id="defs4361">
    <clipPath
       clipPathUnits="userSpaceOnUse"
       id="clipPath2320">
      <path
         style="fill:#c0c0c0;stroke:#000000;stroke-width:3.99246;stroke-miterlimit:4;stroke-dasharray:none;stroke-opacity:1"
         id="path2322"
         d="m 339.83487,19.673346 c -4.69314,0.320951 -8.73991,1.025902 -11.93988,2.052943 -2.55985,0 -2.55713,6.500476 -5.11709,7.527517 -3.41311,2.054023 -8.52709,-12.325396 -11.08694,2.052943 0,2.054023 5.11741,2.051743 4.26426,4.105886 -2.55996,5.135146 -6.82009,11.291275 -11.93989,11.291275 -6.82649,0 -11.08341,-11.290676 -17.90979,-12.317717 -3.41333,-1.027041 -5.11524,5.131847 -8.52846,6.158829 -3.41333,0 -7.10514,-4.106426 -10.51847,-3.079385 -11.94623,3.081064 -22.17367,34.899548 -23.02682,35.92659 -3.41333,2.054082 -6.82101,-6.159309 -10.23423,-5.132267 -4.26664,1.027041 -11.93988,9.241032 -11.93988,4.105765 0,-2.054022 5.1204,-21.55425 -0.85256,-24.635314 -3.41316,-2.054082 -7.67345,3.080045 -11.93988,2.052943 -1.70669,-1.027041 1.7062,-5.131307 0.85256,-7.18533 -0.85348,-1.027041 -4.26382,2.053483 -5.1172,1.025902 -4.26648,-5.135087 -4.26148,-14.710567 -9.38128,-18.818733 -8.53313,-7.189289 -19.60807,45.514308 -33.26105,32.162951 -2.55985,-3.081064 1.70712,-10.263154 -0.85256,-13.344218 -2.55985,-3.081064 -8.52759,2.054622 -10.23412,-1.025902 -14.50619,8.216211 -34.96263,21.547171 -42.64239,37.979532 0,1.027042 -6.8228,32.847324 -6.8228,32.847324 -2.559843,4.10817 -8.527096,2.05066 -11.086942,6.15883 -1.706691,3.08112 0.853427,8.21021 -0.852558,11.29128 -25.59933,38.00004 -53.722982,-12.35048 -65.669328,48.24436 0.853481,13.3513 -11.94249,27.7093 -6.82269,37.97965 7.679701,15.40526 16.198435,28.73406 26.438254,42.08548 1.706528,-1.02704 4.2623,-2.05348 7.675627,-1.0259 15.359457,2.05414 27.28223,28.73904 43.495168,32.84726 10.239599,2.05403 82.728089,-13.34025 79.314759,-20.52954 -3.41333,-6.16219 -15.35723,-20.52505 -4.26425,-28.74138 11.94629,-10.27024 38.37303,-3.07345 47.75942,-14.37072 3.41316,-4.10817 -0.85435,-13.34134 1.70577,-18.47649 6.82638,-14.37846 22.17036,8.21237 28.99685,7.18539 21.33252,-4.1081 1.69827,-11.28569 15.3512,-21.55605 3.41327,-2.05408 8.81079,2.05349 12.22412,1.0259 9.38628,-5.1352 5.96725,-32.84288 11.08705,-41.05909 12.79951,-19.51349 31.54758,-1.02482 46.05377,-4.10589 8.53307,-1.02704 13.64087,-15.3971 22.174,-15.3971 21.33263,1.02704 8.51965,20.52619 24.73248,26.68832 2.55996,2.0542 5.96818,-3.07885 9.3814,-4.10589 6.82643,-2.05414 14.39011,-1.86199 19.04686,-7.86964 0.11841,-0.16978 0.41553,-0.80478 0.56865,-1.02596 -0.22379,-0.002 -0.33459,-0.002 -0.56865,0 0,-8.21621 -5.68649,-17.1039 -3.9799,-24.29319 0.85348,-7.18929 8.5271,-9.23437 11.08694,-16.42366 2.55996,-6.16213 1.70528,-13.340382 2.5586,-20.529551 0.81796,-9.842379 7.47666,-23.369209 7.24929,-33.445972 -1.40887,-0.822293 -3.00627,-0.793798 -4.69069,-1.454176 -7.67987,-1.026981 -9.94575,-1.709136 -17.62556,-4.7902 -5.97328,-2.054082 -11.93717,-2.050663 -17.05697,-6.158888 -3.41327,-2.054143 -2.55708,-9.236653 -5.11703,-12.317717 -8.31977,-7.70281 -26.85715,-10.543311 -40.93673,-9.58046 z" />
    </clipPath>
    <clipPath
       id="a">
      <path
         d="m 171.82,258.25 c -26.762,-12.893 -65.044,-38.479 -65.044,-89.094 0,-50.614 2.42,-73.633 2.42,-73.633 h 62.625 62.627 c 0,0 2.422,23.019 2.422,73.633 -0.001,50.616 -38.286,76.201 -65.05,89.094 z"
         id="path2217" />
    </clipPath>
  </defs>
  <g
     id="layer1"
     transform="translate(-37.759697,-79.49193)">
    <g
       id="slovak-flag"
       transform="matrix(0.04871107,0,0,0.04410404,37.169116,78.685114)"
       clip-path="url(#clipPath2320)">
      <rect
         y="100"
         width="450"
         height="100"
         fill="#0f218b"
         id="rect2222"
         x="0" />
      <rect
         y="-2.7734001e-07"
         width="450"
         height="100"
         fill="#ffffff"
         id="rect2224"
         x="0" />
      <rect
         y="200"
         width="450"
         height="100"
         fill="#ff0000"
         id="rect2226"
         x="0" />
      <path
         d="m 87.457,146.27 c 0,-44.301 2.6251,-69.139 2.6251,-69.139 h 59.063 59.064 c 0,0 2.626,24.839 2.626,69.139 0,47.158 -35.827,70.676 -59.416,82.037 l -2.2754,1.096 -2.2728,-1.096 c -23.586,-11.361 -59.414,-34.879 -59.414,-82.037 z"
         fill="#ffffff"
         fill-rule="evenodd"
         id="path2228" />
      <path
         d="m 149.15,223.59 c -23.224,-11.189 -56.446,-33.393 -56.446,-77.317 0,-43.924 2.1001,-63.9 2.1001,-63.9 h 54.347 54.349 c 0,0 2.1018,19.976 2.1018,63.9 -8.7e-4,43.925 -33.225,66.128 -56.451,77.317 z"
         fill="#ff0000"
         id="path2230" />
      <path
         d="m 154.11,134.76 c 6.2882,0.10153 18.559,0.34799 29.484,-3.3081 0,0 -0.28898,3.9095 -0.28898,8.4638 0,4.5552 0.28898,8.4647 0.28898,8.4647 -10.022,-3.3532 -22.397,-3.4235 -29.484,-3.3333 v 24.261 h -9.933 v -24.261 c -7.0874,-0.0902 -19.462,-0.02 -29.484,3.3333 0,0 0.28898,-3.9095 0.28898,-8.4647 0,-4.5543 -0.28898,-8.4638 -0.28898,-8.4638 10.925,3.6561 23.195,3.4096 29.484,3.3081 v -15.236 c -5.7319,-0.0512 -13.992,0.22303 -23.33,3.348 0,0 0.28899,-3.9095 0.28899,-8.4647 0,-4.5543 -0.28899,-8.4638 -0.28899,-8.4638 9.3255,3.1198 17.574,3.3984 23.304,3.348 -0.29419,-9.6484 -3.105,-21.808 -3.105,-21.808 0,0 5.7848,0.45213 8.0967,0.45213 2.3153,0 8.0984,-0.45213 8.0984,-0.45213 0,0 -2.81,12.161 -3.105,21.808 5.731,0.0495 13.98,-0.22824 23.305,-3.348 0,0 -0.28899,3.9095 -0.28899,8.4638 0,4.5552 0.28899,8.4647 0.28899,8.4647 -9.3394,-3.125 -17.599,-3.3992 -23.331,-3.348 v 15.236 z"
         fill="#ffffff"
         id="path2232" />
      <g
         transform="matrix(0.86781,0,0,0.86781,0.036748,-0.52024)"
         clip-path="url(#a)"
         id="g2236">
        <path
           d="m 170.64,274.85 -55.454,-49.43 c 0,0 7.089,-22.927 20.927,-22.927 10.996,0 15.009,8.865 15.009,8.865 0,0 7.22,-18.689 20.696,-18.689 13.479,0 20.699,18.689 20.699,18.689 0,0 4.013,-8.865 15.01,-8.865 13.838,0 20.927,22.927 20.927,22.927 z"
           fill="#0f218b"
           fill-rule="evenodd"
           id="path2234" />
      </g>
    </g>
    <path
       style="fill:none;stroke:#000000;stroke-width:0.185052;stroke-miterlimit:4;stroke-dasharray:none;stroke-opacity:1"
       id="sk-copy"
       d="m 53.628188,79.592447 c -0.228608,0.01415 -0.425731,0.04525 -0.581604,0.09054 -0.124693,0 -0.12456,0.286698 -0.249258,0.331994 -0.166257,0.09059 -0.415364,-0.5436 -0.540057,0.09054 0,0.09059 0.249275,0.09049 0.207715,0.181087 -0.124697,0.22648 -0.332213,0.49799 -0.581604,0.49799 -0.332524,0 -0.539885,-0.497965 -0.872404,-0.543261 -0.166267,-0.0453 -0.249169,0.226335 -0.415431,0.271631 -0.166267,0 -0.3461,-0.181112 -0.512366,-0.135816 -0.581915,0.135888 -1.080102,1.539213 -1.121662,1.584509 -0.166266,0.09059 -0.332258,-0.271651 -0.49852,-0.226355 -0.207831,0.0453 -0.581604,0.407567 -0.581604,0.181083 0,-0.09059 0.249421,-0.950631 -0.04153,-1.086519 -0.166258,-0.09059 -0.373783,0.135845 -0.581604,0.09054 -0.08313,-0.0453 0.08311,-0.226311 0.04153,-0.316903 -0.04157,-0.0453 -0.207693,0.09057 -0.249262,0.04525 -0.207826,-0.22648 -0.207582,-0.648795 -0.456973,-0.829983 -0.415657,-0.317077 -0.95513,2.007364 -1.620182,1.418516 -0.124693,-0.135887 0.08316,-0.452645 -0.04153,-0.588533 -0.124693,-0.135888 -0.415386,0.09062 -0.498515,-0.04525 -0.706612,0.362368 -1.703067,0.950317 -2.077155,1.675052 0,0.0453 -0.332347,1.448698 -0.332347,1.448698 -0.124693,0.181189 -0.415364,0.09044 -0.540057,0.271631 -0.08313,0.135888 0.04157,0.362102 -0.04153,0.49799 -1.246971,1.675955 -2.616903,-0.544706 -3.198822,2.12777 0.04157,0.588848 -0.581732,1.222093 -0.332342,1.675057 0.374088,0.679435 0.789045,1.267288 1.287835,1.85614 0.08313,-0.0453 0.207623,-0.09057 0.373889,-0.04525 0.748177,0.0906 1.328948,1.267509 2.118698,1.448698 0.498781,0.09059 4.029772,-0.58836 3.863505,-0.905436 -0.166266,-0.271776 -0.748065,-0.905238 -0.207715,-1.267611 0.581914,-0.452959 1.869191,-0.13555 2.326412,-0.633805 0.166258,-0.181189 -0.04162,-0.588408 0.08309,-0.814888 0.33252,-0.634148 1.079943,0.362199 1.412467,0.316903 1.039131,-0.181184 0.08273,-0.497744 0.747773,-0.950708 0.166266,-0.09059 0.429184,0.09057 0.59545,0.04525 0.457217,-0.226484 0.290671,-1.448504 0.540062,-1.810872 0.623479,-0.860623 1.536716,-0.0452 2.243328,-0.181087 0.415657,-0.0453 0.664463,-0.679073 1.08012,-0.679073 1.039136,0.0453 0.415001,0.905287 1.204746,1.177063 0.124698,0.0906 0.290716,-0.135792 0.456978,-0.181088 0.332524,-0.0906 0.700957,-0.08212 0.927792,-0.347084 0.0058,-0.0075 0.02025,-0.03549 0.0277,-0.04525 -0.0109,-8.2e-5 -0.01631,-1.06e-4 -0.0277,0 0,-0.362368 -0.276993,-0.754352 -0.193865,-1.071428 0.04157,-0.317077 0.415365,-0.407273 0.540058,-0.724349 0.124697,-0.271776 0.08307,-0.588365 0.124631,-0.905436 0.03984,-0.434088 0.364196,-1.030677 0.35312,-1.475103 -0.06863,-0.03627 -0.146437,-0.03501 -0.228489,-0.06413 -0.374093,-0.0453 -0.484466,-0.07538 -0.858558,-0.211269 -0.290964,-0.09059 -0.581472,-0.09044 -0.830862,-0.271631 -0.166267,-0.0906 -0.12456,-0.407373 -0.249258,-0.543261 -0.405264,-0.339717 -1.308241,-0.464995 -1.994071,-0.422529 z" />
  </g>
</svg>
